<svg id="Layer_1" data-name="Layer 1" xmlns="http://www.w3.org/2000/svg" viewBox="0 0 929.47 246"><defs><style>.cls-1{fill:#fefefe;}.cls-2{fill:#020202;}.cls-3{fill:#060606;}</style></defs><title>apk_1</title><path class="cls-1" d="M475,260q-231.51,0-463,0c-1.39,0-1.71-.31-1.71-1.7q.06-121.29,0-242.6c0-1.39.32-1.7,1.71-1.7q463,.06,926.06,0c1.39,0,1.71.31,1.71,1.7q-.06,121.31,0,242.6c0,1.39-.32,1.71-1.71,1.7Q706.52,260,475,260Zm-3.53-113.4q20.2,0,40.41,0c1.33,0,1.92-.16,1.92-1.75q-.07-40.54,0-81.09c0-1.32-.38-1.61-1.65-1.6q-40.5,0-81,0c-1.39,0-1.72.33-1.72,1.72q.06,40.46,0,80.91c0,1.46.37,1.83,1.83,1.83C444.65,146.6,458.06,146.62,471.47,146.62Zm-80.85-33.43c.51-.09.67-.13.83-.14,9.5-.66,16.09-5.49,19.61-14.21,2.4-5.94,1.5-12.26,1.16-18.47-.05-.94-.61-1.13-1.48-1.12-4.76,0-9.52,0-14.28,0-1.17,0-1.42-.33-1.4-1.44.07-3.77,0-7.53,0-11.29,0-4.46,0-4.51-4.46-4.52-20.26,0-40.53,0-60.79,0-1.27,0-1.67.29-1.67,1.62q.06,40.55,0,81.08c0,1.19.29,1.58,1.53,1.56,4.51-.07,9-.1,13.53,0,1.47,0,1.7-.45,1.69-1.77-.06-9.87,0-19.74-.06-29.62,0-1.35.28-1.79,1.71-1.77,6.18.09,12.36.07,18.54,0a3.66,3.66,0,0,1,2.88,1.25q15.38,15.42,30.79,30.78a2.82,2.82,0,0,0,2.18,1.11c3.4-.07,6.8-.06,10.19,0,1,0,1.4-.27,1.39-1.34-.07-3.27,0-6.54,0-9.81a2,2,0,0,0-.71-1.61c-1.77-1.63-3.5-3.3-5.23-5ZM685.88,62.54c-9.21,0-18.41,0-27.62,0a25.15,25.15,0,0,0-24,18,25.45,25.45,0,0,0,10.86,28.83c5.08,3.18,10.65,3.89,16.48,3.85,10.13-.07,20.27,0,30.4,0a8.1,8.1,0,0,1,7.72,10.91c-1.29,3.48-4.38,5.36-8.84,5.36q-27.72,0-55.43,0c-1.7,0-2.35.26-2.28,2.16.16,4.25.12,8.51,0,12.77,0,1.52.36,1.94,1.92,1.94,18.72-.06,37.44,0,56.17,0a28.32,28.32,0,0,0,3.68-.25c13.32-1.7,22.67-13.21,21.88-26.89-.74-12.86-11.89-23.22-25-23.22H659a10.89,10.89,0,0,1-3.64-.53,8.25,8.25,0,0,1,3-16q28.37,0,56.73,0c1.43,0,1.84-.33,1.81-1.79-.11-4.38-.11-8.77,0-13.14,0-1.48-.26-2-1.86-1.94C705.28,62.59,695.58,62.54,685.88,62.54ZM114.33,118.05c0-8.83,0-17.65,0-26.48a3.53,3.53,0,0,0-1.14-2.74q-12.7-12.6-25.31-25.27a3.11,3.11,0,0,0-2.4-1q-13,.06-26,0a2.86,2.86,0,0,0-2.25,1Q44.09,76.73,30.82,89.92a2.72,2.72,0,0,0-.89,2.1q0,26.48,0,53c0,1.18.25,1.58,1.5,1.56q7.14-.1,14.28,0c1.29,0,1.67-.33,1.65-1.64-.08-5.43,0-10.86-.07-16.29,0-1.27.27-1.64,1.6-1.64q23.55.08,47.1,0c1.38,0,1.56.47,1.55,1.68-.06,5.31,0,10.62-.06,15.92,0,1.48.25,2,1.87,2,4.39-.12,8.78-.1,13.17,0,1.44,0,1.86-.34,1.85-1.83C114.3,135.82,114.33,126.94,114.33,118.05ZM311.64,118c0-8.83,0-17.65,0-26.47a3.33,3.33,0,0,0-1.07-2.59q-12.75-12.66-25.42-25.4a3.55,3.55,0,0,0-2.76-1.11q-12.71.06-25.39,0a3.35,3.35,0,0,0-2.6,1q-13.06,13.13-26.21,26.18a3.14,3.14,0,0,0-1,2.4q0,26.39,0,52.76c0,1.36.42,1.58,1.66,1.56q7-.1,14.08,0c1.3,0,1.66-.32,1.64-1.63-.08-5.36,0-10.73-.06-16.1,0-1.32.25-1.79,1.7-1.78q23.55.07,47.08,0c1.21,0,1.54.31,1.52,1.52-.06,5.55,0,11.11,0,16.66,0,1,.29,1.33,1.33,1.32,4.63-.06,9.27-.09,13.9,0,1.44,0,1.72-.39,1.71-1.74C311.61,135.73,311.64,126.84,311.64,118ZM920,117.73c0-8.88,0-17.77,0-26.66a3.13,3.13,0,0,0-1-2.43Q906.2,75.92,893.45,63.12a2.86,2.86,0,0,0-2.24-1q-13.08.06-26.14,0a2.5,2.5,0,0,0-2,.76q-13.4,13.44-26.86,26.83a2.28,2.28,0,0,0-.78,1.76q0,26.65,0,53.31c0,1,.33,1.21,1.27,1.21,4.88-.05,9.76-.07,14.64,0,1.26,0,1.53-.39,1.52-1.56-.06-5.43,0-10.87-.07-16.3,0-1.33.39-1.59,1.65-1.59q23.53.07,47.08,0c1.27,0,1.67.29,1.65,1.61-.08,5.43,0,10.86-.06,16.29,0,1.21.3,1.57,1.54,1.55q6.86-.12,13.72,0c1.31,0,1.62-.37,1.62-1.65C920,135.51,920,126.62,920,117.73Zm-789.1-13.46c0,13.46,0,26.91,0,40.36,0,1.28.31,1.68,1.63,1.66,4.45-.09,8.9-.11,13.35,0,1.54,0,1.78-.5,1.77-1.87-.05-10,0-20-.06-30,0-1.54.36-1.94,1.91-1.93q19.54.1,39.11,0a33.23,33.23,0,0,0,5.9-.47C207.79,109.59,216.28,98,215,84.13c-1.12-12.25-12.23-22.06-25.13-22.08-19,0-38.06,0-57.09,0-1.52,0-2,.35-2,1.91C130.92,77.37,130.89,90.82,130.89,104.27Zm603.41-.22c0,13.45,0,26.91,0,40.36,0,1.39.33,1.78,1.73,1.76,4.64-.09,9.27-.1,13.91,0,1.47,0,1.82-.39,1.81-1.83-.07-10.06,0-20.12-.08-30.18,0-1.56.4-1.9,1.93-1.9q23.18.09,46.35,0c1.62,0,2.07.35,2.05,2-.09,9.93,0,19.87-.07,29.81,0,1.52.19,2.16,2,2.09,4.39-.15,8.78-.1,13.17,0,1.32,0,1.63-.39,1.62-1.66q0-40.47,0-80.92c0-1.21-.3-1.58-1.54-1.56-4.45.07-8.9.08-13.35,0-1.41,0-1.88.29-1.87,1.81.07,9.94,0,19.87.07,29.81,0,1.56-.43,1.92-2,1.91q-23.28-.09-46.54,0c-1.45,0-1.83-.34-1.82-1.81.06-10.06,0-20.12.06-30.18,0-1.23-.32-1.55-1.53-1.53-4.7.06-9.4.09-14.09,0-1.5,0-1.82.43-1.81,1.85C734.32,77.26,734.3,90.65,734.3,104.05Zm-202.13.22c0,13.4,0,26.79,0,40.19,0,1.46.37,1.86,1.83,1.83q7-.15,13.91,0c1.44,0,1.71-.4,1.7-1.74-.06-9.88,0-19.76-.07-29.63,0-1.49.42-1.8,1.83-1.78,5.93.07,11.86,0,17.8,0a3.33,3.33,0,0,1,2.62,1c9.59,9.45,19.31,18.76,28.77,28.33,2.7,2.73,5.36,4.42,9.29,3.81a20.91,20.91,0,0,1,5,0c1.47.12,1.74-.46,1.7-1.78-.09-2.9-.08-5.8,0-8.7a3.41,3.41,0,0,0-1.15-2.75c-9.32-9.19-18.6-18.43-27.93-27.61-.9-.89-1.12-1.3,0-2.34,9.37-9,18.66-18.18,28-27.29a2.81,2.81,0,0,0,1.15-2.18c-.07-3.46-.06-6.91,0-10.37,0-1-.34-1.26-1.29-1.24-3,0-6.06.07-9.08,0a3.62,3.62,0,0,0-2.9,1.22Q587.55,79,571.81,94.71a3.69,3.69,0,0,1-2.9,1.19c-5.87-.06-11.74-.08-17.61,0-1.52,0-1.79-.47-1.78-1.85.05-10.07,0-20.13.07-30.19,0-1.61-.47-1.9-2-1.87q-6.76.15-13.53,0c-1.51,0-2,.32-2,1.89C532.2,77.36,532.17,90.82,532.17,104.27ZM131.09,190.82h57.08a10.25,10.25,0,0,1,1.11,0c.78.08,1.16-.2,1.09-1a6.15,6.15,0,0,1,0-1.66c.32-1.87-.4-2.31-2.27-2.31q-56.52.1-113,0c-3,0-2.93,0-3.07,3-.08,1.63.37,2,2,2C93,190.8,112.07,190.82,131.09,190.82Zm687.52,0h56.7a7,7,0,0,1,.92,0c1.13.16,1.77-.15,1.55-1.45a3.73,3.73,0,0,1,0-1.29c.37-1.91-.46-2.26-2.26-2.25q-56.79.07-113.59,0a11.28,11.28,0,0,1-1.3,0c-.91-.1-1.21.31-1.12,1.17a6.22,6.22,0,0,1,0,1.67c-.34,1.86.51,2.16,2.22,2.15C780.68,190.8,799.64,190.82,818.61,190.82Zm-313.57-3V176.53c0-3.27,0-3.2-3.3-3.22-1.26,0-1.39.48-1.37,1.51.06,2.41,0,4.82,0,7.22,0,3.57,0,3.52-3.52,3.56-1.15,0-1.62-.2-1.56-1.48.11-2.59,0-5.19,0-7.78,0-3,0-2.91-3-3-1.54-.06-1.79.48-1.78,1.86.06,7.9,0,15.79,0,23.69,0,3.54,0,3.5,3.5,3.42,1,0,1.26-.29,1.23-1.26-.06-2.59,0-5.18,0-7.77,0-3.6,0-3.53,3.57-3.56,1.31,0,1.53.47,1.5,1.6-.06,2.59,0,5.19,0,7.78,0,3.26,0,3.22,3.34,3.21,1,0,1.36-.25,1.34-1.31C505,196.58,505,192.2,505,187.82Zm-146.81-.15V199c0,3.4,0,3.35,3.42,3.32,1.09,0,1.34-.36,1.31-1.38-.06-2.52,0-5.06,0-7.59,0-3.7,0-3.64,3.68-3.63,1.24,0,1.42.48,1.39,1.53-.06,2.65,0,5.3,0,8,0,3.1,0,3,3.08,3.11,1.31,0,1.62-.32,1.61-1.62-.07-8.08,0-16.16,0-24.24,0-3.14,0-3.08-3.23-3.1-1.13,0-1.49.27-1.45,1.43.1,2.4,0,4.81,0,7.21,0,3.73,0,3.7-3.82,3.63-.93,0-1.28-.21-1.25-1.21.07-2.59,0-5.18,0-7.78,0-3.32,0-3.24-3.26-3.29-1.31,0-1.49.47-1.47,1.59C358.26,179.16,358.23,183.41,358.23,187.67Zm68.49.44a5.38,5.38,0,0,0,2.53-3.92,20.92,20.92,0,0,0,0-6.27c-.5-2.9-2.41-4.46-5.42-4.56-2.16-.07-4.33.06-6.49,0-1.28-.07-1.65.29-1.64,1.61.07,8,0,16,0,24.06,0,3.32,0,3.24,3.26,3.29,1.33,0,1.49-.49,1.47-1.6-.07-3,0-5.92-.05-8.88,0-1.24.44-1.44,1.5-1.36,1.65.12,2.72.84,2.84,2.55s.09,3.2.12,4.8c.11,5.38-.64,4.41,4.7,4.4.05,0,.11-.05.25-.11-.67-2.94-.21-6-.41-9C429.27,191.13,428.76,189.36,426.72,188.11Zm140.31-.5c0,4.44,0,8.88,0,13.33,0,1.06.3,1.36,1.35,1.33,2.16-.08,4.32,0,6.48,0,3.71,0,6.11-2.21,6.19-5.93q.19-8.51,0-17c-.08-3.71-2.48-5.89-6.18-5.93-2.1,0-4.21.06-6.3,0-1.2-.06-1.57.28-1.55,1.52C567.08,179.09,567,183.35,567,187.61Zm114.6.18c0,4.38,0,8.76,0,13.14,0,1.06.3,1.37,1.34,1.34,2.16-.08,4.33,0,6.49,0,3.7,0,6.11-2.21,6.19-5.92q.2-8.52,0-17c-.08-3.72-2.48-5.9-6.18-5.94-2.1,0-4.21.06-6.3,0-1.2,0-1.57.27-1.55,1.51C681.68,179.15,681.63,183.47,681.63,187.79Zm-457.28,0c0,4.38,0,8.76,0,13.14,0,1,.22,1.41,1.32,1.37,2.15-.09,4.32,0,6.48,0,3.73,0,6.14-2.17,6.23-5.89.13-5.67.12-11.36,0-17-.08-3.81-2.48-5.94-6.34-6-2,0-4.08.09-6.11,0-1.38-.08-1.6.44-1.58,1.68C224.39,179.24,224.35,183.5,224.35,187.76Zm440.16,14.48c2.58,0,2.61,0,2.26-2.27q-1.66-10.66-3.39-21.32c-.28-1.74.09-4.15-1.1-5s-3.44-.21-5.22-.31c-1-.06-1.33.25-1.49,1.29-1.27,8.27-2.63,16.52-4,24.79-.47,2.88-.47,2.78,2.45,2.88,1.44.05,1.63-.63,1.65-1.73,0-.42.25-.85.22-1.27-.17-2,.86-2.28,2.58-2.21,3.12.14,3.28,0,3.58,2.94C662.28,201.92,662.88,202.73,664.51,202.24ZM285.8,187.81h0c0-2.83,0-5.67,0-8.51a2.23,2.23,0,0,1,4.45-.08,10,10,0,0,1,0,2c-.2,1.5.29,2,1.88,2,2.54-.14,2.54,0,2.54-2.55a12,12,0,0,0-.28-2.93c-.84-3.44-3-4.89-7.25-4.76a5.71,5.71,0,0,0-5.86,5.07c-.56,3.12-.26,6.28-.25,9.41,0,3.39-.32,6.79.26,10.16a5.55,5.55,0,0,0,3.4,4.5c5.15,2.17,9.81-.8,10-6.35a15.25,15.25,0,0,1,0-2c.29-1.82-.32-2.38-2.23-2.32-1.69.05-2.53.31-2.21,2.18a14.93,14.93,0,0,1,0,2.22c0,1.52-.63,2.52-2.22,2.63s-2.3-.85-2.33-2.68C285.77,193.12,285.8,190.46,285.8,187.81Zm342.69.05h0c0-2.78,0-5.55,0-8.33a2.11,2.11,0,0,1,2.26-2.37,2.15,2.15,0,0,1,2.25,2.39,11.31,11.31,0,0,1,0,1.84c-.23,1.51.4,1.88,1.83,1.82,2.59-.1,2.62,0,2.57-2.68a13.2,13.2,0,0,0-.28-2.74c-.77-3.47-3-4.92-7.19-4.81a5.7,5.7,0,0,0-5.92,5.21c-.58,3.61-.21,7.26-.24,10.89a44.63,44.63,0,0,0,.25,8.49,5.73,5.73,0,0,0,5.89,5c4.24.12,6.4-1.34,7.23-4.78a28.49,28.49,0,0,0,.28-5.53c0-.49-.09-.72-.68-.83-3.14-.54-3.72-.1-3.72,3,0,.43,0,.86,0,1.29-.09,1.81-.91,2.79-2.35,2.68-1.59-.12-2.22-1.12-2.21-2.64C628.5,193.16,628.49,190.51,628.49,187.86ZM330,187.65v11.27c0,3.42,0,3.38,3.38,3.35,1,0,1.4-.24,1.36-1.32-.08-2.34,0-4.68,0-7s0-2.41,2.39-2.43c3.72,0,5.72-1.69,6.32-5.36a24.44,24.44,0,0,0,.06-7c-.5-4.11-2.53-5.8-6.67-5.8-1.6,0-3.22.1-4.81,0s-2.12.22-2.06,2C330.15,179.39,330,183.52,330,187.65Zm58.23,0c0,4.38,0,8.76,0,13.14,0,1.13.27,1.47,1.43,1.44,3.21-.08,6.42-.06,9.64,0,1,0,1.67-.14,1.47-1.38a5.64,5.64,0,0,1,0-1.48c.14-1.07-.3-1.38-1.34-1.33-1.73.07-3.46,0-5.19,0-.94,0-1.32-.21-1.29-1.22.07-2,.06-4.07,0-6.11,0-.85.19-1.21,1.12-1.16,1.29.08,2.59,0,3.89,0,1,.07,1.31-.34,1.21-1.27a7.68,7.68,0,0,1,0-1.66c.11-1-.29-1.31-1.26-1.25-1.29.07-2.59,0-3.89,0-.81,0-1.08-.26-1.06-1.06,0-2,.06-4,0-5.92,0-1,.47-1.08,1.25-1.06,1.67,0,3.34,0,5,0,1.14.06,1.78-.18,1.56-1.48a4.05,4.05,0,0,1,0-1.3c.2-1.18-.34-1.43-1.44-1.41-3.15.07-6.3.09-9.45,0-1.26,0-1.68.26-1.65,1.6C388.33,179.17,388.27,183.43,388.27,187.69Zm132.4-.08c0,4.44,0,8.88,0,13.32,0,.85.05,1.36,1.15,1.34,3.46-.07,6.92-.05,10.37,0,.87,0,1.06-.35,1-1.1a10.39,10.39,0,0,1,0-1.85c.12-1-.33-1.26-1.26-1.23-1.79.06-3.59,0-5.38,0-.87,0-1.2-.24-1.17-1.14q.07-3.15,0-6.29c0-.8.2-1.09,1-1.05,1.29.06,2.6,0,3.89,0,.9,0,1.43-.13,1.29-1.19a8.8,8.8,0,0,1,0-1.85c.09-.92-.32-1.12-1.17-1.15-1.65,0-4,.76-4.76-.34s-.24-3.32-.27-5a12.18,12.18,0,0,0,0-1.48c-.09-.9.28-1.17,1.17-1.15,1.85.06,3.7,0,5.55,0,.76,0,1.17-.17,1.09-1a6.67,6.67,0,0,1,0-1.67c.19-1.28-.4-1.52-1.55-1.49-3.15.07-6.31.08-9.45,0-1.2,0-1.57.28-1.55,1.52C520.72,179.09,520.67,183.35,520.67,187.61Zm75.66.16v13.14c0,.65-.2,1.37.93,1.35,3.58,0,7.16,0,10.74,0,.49,0,.74-.11.85-.69.53-2.84.06-3.46-2.73-3.46h-.56c-4.52,0-4.52,0-4.52-4.43,0-4,0-4.07,4.14-4,1.47,0,2.14-.12,2.13-1.92s-.45-2.57-2.34-2.28c-.9.14-1.85,0-2.77,0s-1.2-.24-1.18-1.14c.06-1.85.08-3.7,0-5.55,0-1,.26-1.42,1.33-1.36,1.67.09,3.35-.07,5,.05,1.28.09,1.63-.42,1.48-1.58a3.69,3.69,0,0,1,0-1.1c.2-1.24-.32-1.55-1.52-1.52-3.15.08-6.31.1-9.45,0-1.4-.05-1.59.47-1.57,1.69C596.37,179.25,596.33,183.51,596.33,187.77Zm114.6-.08c0,4.38,0,8.76,0,13.14,0,1.13.27,1.47,1.43,1.44,3.21-.08,6.42-.06,9.63,0,1,0,1.68-.14,1.48-1.38a5.24,5.24,0,0,1,0-1.48c.14-1.07-.31-1.38-1.35-1.33-1.72.07-3.46,0-5.18,0-.94,0-1.33-.21-1.29-1.22.07-2,.06-4.07,0-6.11,0-.85.18-1.21,1.12-1.16,1.29.08,2.59,0,3.88,0,1,.07,1.32-.34,1.22-1.27a7.68,7.68,0,0,1,0-1.66c.1-1-.29-1.31-1.26-1.25-1.29.07-2.59,0-3.89,0-.81,0-1.08-.26-1.06-1.06,0-2,.06-4,0-5.92,0-1,.47-1.08,1.25-1.06,1.67,0,3.34,0,5,0,1.15.06,1.79-.18,1.57-1.48a4.05,4.05,0,0,1,0-1.3c.19-1.18-.34-1.43-1.44-1.41-3.15.07-6.3.09-9.45,0-1.26,0-1.68.26-1.65,1.6C711,179.17,710.93,183.43,710.93,187.69Zm-457.29,0c0,4.38,0,8.76,0,13.14,0,.75-.13,1.43,1.06,1.41,3.46-.07,6.92,0,10.38,0,.46,0,.92.13,1.09-.63.57-2.69,0-3.51-2.69-3.51-.12,0-.24,0-.37,0-1.52-.11-3.5.65-4.46-.29s-.26-2.93-.28-4.46c0-3.7,0-3.72,3.7-3.69,1.45,0,2.72.33,2.57-2-.12-1.81-.57-2.38-2.3-2.14-.91.13-1.86,0-2.78,0s-1.25-.34-1.22-1.27c.06-1.85.07-3.71,0-5.55,0-1,.33-1.28,1.28-1.23,1.29.08,2.59,0,3.89,0,2.66,0,2.61,0,2.66-2.6,0-1.15-.2-1.62-1.49-1.58-3.21.1-6.42.09-9.63,0-1.15,0-1.45.3-1.43,1.44C253.69,179.08,253.64,183.4,253.64,187.72ZM467,189.93c0,3.58.06,7.15,0,10.73,0,1.31.36,1.79,1.64,1.59a4,4,0,0,1,1.3,0c1.48.25,1.8-.38,1.78-1.79-.07-7,0-13.94-.07-20.91,0-1.66.36-2.21,2.08-2.11,2.76.16,2.67,0,2.76-2.66,0-1.34-.49-1.48-1.6-1.47-3.46.06-6.92.13-10.38,0-1.73-.07-2.29.3-2.24,2.15,0,1.67.45,2.34,2.13,2.05.35-.06.74,0,1.1,0,1.22-.18,1.59.3,1.56,1.53C467,182.65,467,186.29,467,189.93Zm-152.66-2V176.34c0-3,0-2.91-3-3-1.5-.07-1.8.42-1.79,1.83.07,8,0,16,0,24,0,3.15,0,3.08,3.23,3.13,1.25,0,1.52-.38,1.5-1.55C314.32,196.48,314.36,192.23,314.36,188ZM449,235.78l-.34-.05c-.48-3-1-6.06-1.44-9.1-.28-1.91-1.71-.82-2.62-1s-1,.54-1,1.25c0,4.45,0,8.89,0,13.34,0,.84.05,1.34,1.15,1.36,1.27,0,1-.75,1-1.45,0-2.52,0-5,0-7.57a59.71,59.71,0,0,1,1.59,7.6c.13.81.2,1.44,1.39,1.43s1.29-.59,1.41-1.44c.27-1.92.56-3.83.85-5.74l.59,0c0,1.93,0,3.86,0,5.79,0,.8,0,1.35,1.12,1.35s1.25-.47,1.24-1.41c0-4.32,0-8.64,0-13,0-.66.49-1.79-1-1.61-1.07.13-2.49-.64-2.69,1.42C449.92,229.93,449.4,232.85,449,235.78ZM518,30.3v5.36c0,4,0,4,4,4,1.93,0,3.93-.13,4.6-2.24.77-2.41,1.18-5-.75-7.14-.63-.69-.36-.82,0-1.36a5.87,5.87,0,0,0,.38-6c-.74-1.75-2.46-1.82-4.1-1.82-1,0-2,.07-3,0s-1.22.33-1.2,1.26C518,25,518,27.65,518,30.3Zm35.23,0c0,2.71,0,5.42,0,8.12,0,.54-.3,1.3.77,1.27,1.6,0,3.22.09,4.8-.07a3.53,3.53,0,0,0,3.36-3.73q.15-5.45,0-10.89c-.06-2.4-1.47-3.71-3.85-3.83-1.3-.06-2.6.05-3.88,0-1-.07-1.25.26-1.23,1.23C553.26,25,553.22,27.62,553.22,30.26Zm-61.55.26c0-2.71-.09-5.43,0-8.14.07-1.39-.67-1.24-1.58-1.28s-1.61,0-1.5,1.34c.13,1.59-.09,3.21.06,4.8S488.25,29,486.93,29s-1.74-.27-1.64-1.61c.13-1.72,0-3.46,0-5.18.07-1.42-.91-1-1.61-1s-1.4-.15-1.38,1.07q.12,8.15,0,16.29c0,1.26.61,1.21,1.47,1.17s1.6.2,1.53-1.13c-.11-1.85.09-3.71-.06-5.55-.13-1.5.61-1.47,1.72-1.51s1.77.23,1.67,1.59c-.13,1.72,0,3.46-.06,5.18-.06,1.11.22,1.55,1.41,1.44,1-.08,1.76.13,1.68-1.38C491.56,35.71,491.67,33.11,491.67,30.52ZM420,21.21c-1.95-.62-2.32.46-2.56,2.12-.68,4.89-1.45,9.76-2.36,14.6-.32,1.64.23,1.8,1.59,1.74s1.07-1.21,1.12-1.88c.11-1.18.53-1.47,1.7-1.53,1.66-.1,2.55.29,2.48,2.1-.07,2,1.47,1.26,2.39,1.25,1.42,0,.55-1.15.48-1.64-.74-4.93-1.67-9.84-2.35-14.78C422.26,21.51,421.81,20.65,420,21.21Zm48.91,0c-2.06-.81-2.28.52-2.52,2.22-.7,4.94-1.54,9.86-2.4,14.78-.19,1.1-.06,1.42,1.18,1.49,1.42.08,1.39-.73,1.61-1.64.16-.62-.33-1.54.84-1.77,2.2-.43,3.05,0,3.27,2.17.19,1.83,1.47,1.1,2.34,1.15,1.49.07.65-1.08.58-1.56-.76-5-1.69-10-2.37-15C471.21,21.43,470.73,20.71,468.91,21.22Zm74.8,18.38c1.53.42,1.56-.38,1.36-1.56-.87-5.1-1.77-10.2-2.48-15.33-.2-1.42-.72-1.78-2-1.6s-2.65-.64-2.94,1.6c-.68,5.19-1.59,10.35-2.47,15.51-.2,1.12,0,1.41,1.18,1.49,1.43.08,1.59-.74,1.56-1.65-.07-1.87,1.11-1.66,2.38-1.8,1.58-.16,1.73.74,1.76,1.85S542.37,40,543.71,39.6Zm-35.17,0c1.82.63,1.44-.62,1.26-1.69-.82-5-1.8-10.08-2.42-15.15-.26-2.14-1.54-1.5-2.7-1.65-1.39-.18-2.05.19-2.26,1.75q-1,7.61-2.43,15.15c-.27,1.51.13,1.71,1.49,1.69,1.18,0,1.21-.74,1.18-1.41-.08-2,1.06-2,2.57-2,1.71-.07,1.57,1,1.62,2S507.27,39.89,508.54,39.59Zm77.81.22c2.73,0,4.24-1.39,4.44-4.08s-1.1-4.47-2.93-6.07c-1.07-.93-2.25-1.84-2.62-3.26-.25-.94-.56-2.21.83-2.66s1.82.45,2,1.65,1.25.56,1.9.69c.82.17.82-.41.81-1A3.86,3.86,0,0,0,587.08,21c-2.64-.26-4.36.87-4.82,3.22a6.61,6.61,0,0,0,2.17,6.34c.85.8,1.7,1.6,2.51,2.45a3.48,3.48,0,0,1,.9,2.72,1.4,1.4,0,0,1-1.36,1.47,1.43,1.43,0,0,1-1.63-1.39,5.62,5.62,0,0,1,0-.92c.05-1.24-.9-.71-1.44-.74s-1.22-.38-1.34.7A4.2,4.2,0,0,0,586.35,39.81Zm-108,198.63a19.61,19.61,0,0,1,0-2c0-.41-.36-1.07.43-1.18s1.44,0,1.73.71a5.75,5.75,0,0,1,.27,1.81c0,1,0,2,0,3,0,.8.54.89,1.13.78s1.47.3,1.34-.4c-.42-2.25.75-4.76-1.06-6.76-.32-.35-.28-.5,0-.87a6.14,6.14,0,0,0,.38-6.47c-.9-1.91-3-1.35-4.65-1.42a7,7,0,0,1-.92,0c-1-.15-1.22.37-1.21,1.28,0,4.44.05,8.88,0,13.32,0,1,.23,1.36,1.31,1.39,1.24,0,1.27-.56,1.2-1.45C478.31,239.55,478.34,239,478.34,238.44Zm34.19-4.75c0-2.34,0-4.68,0-7,0-.91-.28-1.15-1.15-1.11s-1.43,0-1.36,1.13c.09,1.59-.07,3.21,0,4.8.09,1.34-.74,1.11-1.52,1.13s-1.41,0-1.33-1.11c.12-1.6,0-3.21.05-4.81,0-.86-.19-1.22-1.12-1.14-.75.07-1.42-.1-1.41,1.08.06,4.63.05,9.25,0,13.87,0,1.06.56,1,1.28,1s1.31,0,1.24-1c-.09-1.48.06-3-.05-4.44-.08-1.16.44-1.29,1.4-1.26s1.55,0,1.45,1.22,0,2.71,0,4.06c0,.9,0,1.47,1.22,1.46s1.31-.41,1.28-1.39C512.49,238,512.53,235.85,512.53,233.69ZM381.8,231.86v-2.25c0-.77.08-1.55,1-1.75s1.42.38,1.59,1.31c.22,1.2,1.21.61,1.81.59.9,0,.51-.84.45-1.29-.27-1.93-1.72-3-3.85-2.9a3.24,3.24,0,0,0-3.44,3.35c-.11,3.08-.1,6.17,0,9.25.08,2.16,1.46,3.32,3.64,3.34a3.34,3.34,0,0,0,3.71-3.28,34.22,34.22,0,0,0,0-3.51C386.68,231.35,385,230.32,381.8,231.86Zm42.78,3.3c0,.84,0,1.51,0,2.19,0,.83,0,1.7-1,1.89s-1.42-.44-1.57-1.38-1.06-.52-1.63-.58c-.78-.08-.63.55-.62,1a3.25,3.25,0,0,0,3.2,3.19c2.23.19,3.79-.78,4-2.88a52.16,52.16,0,0,0,0-10.15c-.18-2-1.67-3-3.83-2.9a3.24,3.24,0,0,0-3.4,3.18c-.1,1.22-.07,2.46-.05,3.7C419.75,235.73,421.47,236.75,424.58,235.16Zm147.57-1.63c0,1.54-.06,3.09,0,4.62a3.29,3.29,0,0,0,3.61,3.36c2.18,0,3.65-1.13,3.73-3.25.12-3.14.12-6.29,0-9.43-.08-2.13-1.54-3.27-3.72-3.26s-3.51,1.18-3.62,3.34C572.08,230.44,572.15,232,572.15,233.53Zm-28.93-.1h0v4.25c0,.12,0,.25,0,.37a3.33,3.33,0,0,0,3.52,3.46c2.27.06,3.77-1.12,3.85-3.33.12-3.08.11-6.17,0-9.25-.08-2.21-1.56-3.41-3.82-3.36a3.29,3.29,0,0,0-3.55,3.42C543.16,230.46,543.22,232,543.22,233.43Zm-75.59,8c1.12.24,1.35-.12,1.16-1.25-.76-4.43-1.49-8.86-2-13.32-.23-1.84-1.41-1.21-2.39-1.34-1.13-.15-1.55.24-1.71,1.45-.57,4.27-1.34,8.51-1.95,12.78-.08.52-.89,1.48.43,1.7,1,.17,1.79,0,1.73-1.35,0-.94.13-1.72,1.55-1.66s1.92.28,1.91,1.66C466.32,240.93,466.38,241.86,467.63,241.47Zm22.56-7.88c0,1.54-.06,3.08,0,4.62a3.25,3.25,0,0,0,2.91,3.29c2.88.43,4.39-1.26,4.33-4.69,0-.94-.23-1.24-1.23-1.28-1.32-.05-1.14.73-1.14,1.53,0,1,.22,2.22-1.26,2.17s-1.21-1.3-1.21-2.26c0-2.1-.06-4.2,0-6.3,0-1.06-.54-2.67,1.2-2.8s1.23,1.35,1.26,2.33c0,.75.5.77,1,.72s1.26.31,1.32-.56c.1-1.42.16-2.91-1.07-4a3.91,3.91,0,0,0-4-.59A3.09,3.09,0,0,0,490.2,229C490.16,230.5,490.19,232,490.19,233.59ZM393.35,31.87c0-2.1.1-4.2,0-6.28-.1-1.52.31-2.17,1.88-1.88.93.18,1.31-.17,1.25-1.18s0-1.51-1.21-1.44c-2.09.11-4.19,0-6.28,0-.83,0-1.66-.25-1.66,1.19s.56,1.57,1.62,1.4,1.55.27,1.53,1.49c-.08,4.43,0,8.86-.06,13.3,0,1.28.64,1.17,1.47,1.15s1.58.18,1.52-1.14C393.27,36.3,393.35,34.08,393.35,31.87ZM561.3,241.51c.68,0,1.36,0,2,0s1.6.38,1.64-1-.86-1.12-1.67-1.21c-1-.11-2.46.56-2.86-.36-.5-1.13.83-2,1.53-2.94.46-.59,1-1.09,1.45-1.69a7.66,7.66,0,0,0,1.72-4.4c.09-2.72-1.08-4.2-3.43-4.3s-3.81,1.27-3.88,4.09c0,.66-.33,1.48,1,1.51s1.52-.34,1.42-1.46c-.09-.88,0-1.9,1.22-1.87s1.3,1.13,1.27,2a6.53,6.53,0,0,1-2,4.24,9.52,9.52,0,0,0-2.63,4c-.79,2.94-.44,3.41,2.51,3.41Zm-192.77,0c.75,0,1.49,0,2.23,0s1.33-.05,1.35-1.15-.6-1.12-1.39-1.1-1.48-.05-2.22,0c-1.2.1-1.24-.51-.85-1.32a13.58,13.58,0,0,1,2.27-2.91,8.25,8.25,0,0,0,2.36-5.1c.14-2.81-1.08-4.33-3.52-4.39s-3.74,1.34-3.79,4.18c0,.76-.14,1.43,1.06,1.42s1.39-.34,1.32-1.37,0-2.06,1.32-2,1.21,1.21,1.17,2.13a6.89,6.89,0,0,1-2.21,4.36,8.29,8.29,0,0,0-2.58,4.39c-.4,2.7-.36,2.78,2.37,2.78Zm40.38,0c.74,0,1.48,0,2.22,0s1.42.09,1.4-1.09-.46-1.12-1.33-1.18c-1.1-.08-2.75.68-3.18-.38-.5-1.23,1-2.21,1.8-3.21.53-.68,1.14-1.3,1.61-2a7,7,0,0,0,1.29-3.8c.07-2.72-1.11-4.18-3.48-4.26s-3.72,1.22-3.82,3.94c0,.69-.45,1.63,1,1.67,1.25,0,1.45-.46,1.38-1.51-.07-.9.06-1.9,1.26-1.83s1.26,1.17,1.23,2.09a6.86,6.86,0,0,1-2.18,4.37,8.55,8.55,0,0,0-2.57,4.2c-.53,2.83-.4,3,2.46,3Zm123.47,0c.75,0,1.49,0,2.23,0s1.41.14,1.43-1.06-.65-1.14-1.5-1.2c-1-.08-2.6.63-3-.36-.5-1.19.91-2.13,1.66-3.08.46-.58,1-1.1,1.43-1.7a7.49,7.49,0,0,0,1.6-4.26c.09-2.71-1.09-4.18-3.45-4.28s-3.74,1.2-3.84,3.92c0,.67-.49,1.64,1,1.68,1.2,0,1.49-.39,1.4-1.48-.08-.89,0-1.89,1.24-1.85s1.28,1.14,1.25,2.07a6.56,6.56,0,0,1-2,4.23,9.58,9.58,0,0,0-2.63,4c-.77,2.95-.44,3.4,2.54,3.4ZM433.06,30.27c0,2.65.05,5.3,0,8,0,1.09.18,1.54,1.39,1.45,1.6-.11,3.21-.05,4.82,0,1,0,1.71.09,1.68-1.37S440.18,37,439.3,37a16.31,16.31,0,0,0-1.85,0c-1.28.19-1.5-.39-1.48-1.54.07-4.31,0-8.63.06-12.94,0-1.29-.43-1.49-1.57-1.5S433,21.34,433,22.5C433.12,25.09,433.06,27.68,433.06,30.27Zm15.95,0c0,1,0,2.09,0,3.14,0,2-.72,4.77.3,5.88,1.17,1.27,3.95.24,6,.4,1,.07,1.52-.08,1.53-1.34S456.21,37,455.28,37c-.61,0-1.24-.06-1.85,0-1.21.17-1.54-.29-1.52-1.5.08-4.38,0-8.76.07-13.13,0-1.31-.56-1.31-1.54-1.34s-1.52.16-1.47,1.38C449.08,25.06,449,27.65,449,30.24Zm-96.06,0c0,2.71.05,5.41,0,8.12,0,1.06.31,1.42,1.34,1.3.81-.09,1.68.27,1.66-1.2-.08-5.41-.07-10.83,0-16.24,0-1.36-.8-1.06-1.56-1.11s-1.49-.05-1.44,1.19C353,24.94,353,27.59,353,30.24Zm11.87.13c0,2.71.07,5.42,0,8.13-.05,1.28.64,1.17,1.47,1.15s1.54.17,1.53-1.14q-.1-8.11,0-16.24c0-1.3-.69-1.16-1.51-1.16s-1.55-.17-1.49,1.14C364.89,25,364.82,27.67,364.82,30.37Zm11.87-.07c0,2.71.06,5.42,0,8.12,0,1.17.45,1.3,1.4,1.24s1.62.14,1.6-1.26q-.14-8,0-16.06c0-1.42-.77-1.17-1.62-1.24s-1.42.13-1.38,1.26C376.75,25,376.69,27.65,376.69,30.3Zm194.47-3.81c1.94-.76,2.14-2.31,2.26-3.83,0-.5.45-1.37-.49-1.5-.7-.1-1.69-.39-2.09.17s-.36,1.91-.1,2C572.45,24.17,571,25.23,571.16,26.49ZM396,234.84c.25,0,.5,0,.74,0,.7-.06,1.57.38,1.61-1s-.82-1.18-1.64-1.19-1.48,0-2.22,0c-.95,0-.59.75-.63,1.22s-.12,1,.66,1C395,234.82,395.47,234.83,396,234.84Z" transform="translate(-10.26 -14.05)"/><path class="cls-2" d="M471.47,146.62c-13.41,0-26.82,0-40.23,0-1.46,0-1.83-.37-1.83-1.83q.06-40.46,0-80.91c0-1.39.33-1.72,1.72-1.72q40.5.06,81,0c1.27,0,1.65.28,1.65,1.6q-.06,40.55,0,81.09c0,1.59-.59,1.75-1.92,1.75Q491.68,146.59,471.47,146.62ZM483,93.67c0-3.21-.06-6.42,0-9.62,0-1.33-.25-1.81-1.71-1.79-6.48.09-13,.08-19.46,0-1.31,0-1.65.36-1.63,1.65.07,5.49,0,11,0,16.47,0,1.46-.62,3.34.27,4.29s2.81.36,4.26.28,1.68.53,1.67,1.82c-.06,6,0,12-.06,18,0,1.22.18,1.75,1.56,1.68,2.47-.13,4.95-.11,7.41,0,1.2,0,1.55-.28,1.53-1.51-.07-4.93-.05-9.87,0-14.8,0-1.65-.69-3.72.3-4.81.85-.94,2.93-.26,4.46-.24,1.06,0,1.38-.34,1.36-1.38C482.93,100.33,483,97,483,93.67Z" transform="translate(-10.26 -14.05)"/><path class="cls-2" d="M390.62,113.19l16,15.36c1.73,1.67,3.46,3.34,5.23,5a2,2,0,0,1,.71,1.61c0,3.27,0,6.54,0,9.81,0,1.07-.35,1.35-1.39,1.34-3.39-.06-6.79-.07-10.19,0a2.82,2.82,0,0,1-2.18-1.11Q383.39,129.78,368,114.39a3.66,3.66,0,0,0-2.88-1.25c-6.18.06-12.36.08-18.54,0-1.43,0-1.72.42-1.71,1.77.06,9.88,0,19.75.06,29.62,0,1.32-.22,1.81-1.69,1.77-4.51-.11-9-.08-13.53,0-1.24,0-1.53-.37-1.53-1.56q0-40.54,0-81.08c0-1.33.4-1.62,1.67-1.62,20.26,0,40.53,0,60.79,0,4.46,0,4.46.06,4.46,4.52,0,3.76.05,7.52,0,11.29,0,1.11.23,1.46,1.4,1.44,4.76-.07,9.52,0,14.28,0,.87,0,1.43.18,1.48,1.12.34,6.21,1.24,12.53-1.16,18.47-3.52,8.72-10.11,13.55-19.61,14.21C391.29,113.06,391.13,113.1,390.62,113.19ZM366.54,95.88c6.67,0,13.35,0,20,0a8.26,8.26,0,1,0,.35-16.51c-13.54,0-27.07,0-40.6,0-1.16,0-1.46.33-1.45,1.46.06,4.5.08,9,0,13.51,0,1.33.38,1.64,1.66,1.62C353.19,95.84,359.87,95.88,366.54,95.88Z" transform="translate(-10.26 -14.05)"/><path class="cls-2" d="M685.88,62.54c9.7,0,19.4.05,29.11,0,1.6,0,1.89.46,1.86,1.94-.11,4.37-.11,8.76,0,13.14,0,1.46-.38,1.79-1.81,1.79q-28.37-.08-56.73,0a8.25,8.25,0,0,0-3,16,10.89,10.89,0,0,0,3.64.53h32.81c13.11,0,24.26,10.36,25,23.22.79,13.68-8.56,25.19-21.88,26.89a28.32,28.32,0,0,1-3.68.25c-18.73,0-37.45,0-56.17,0-1.56,0-2-.42-1.92-1.94.11-4.26.15-8.52,0-12.77-.07-1.9.58-2.17,2.28-2.16q27.71.09,55.43,0c4.46,0,7.55-1.88,8.84-5.36A8.1,8.1,0,0,0,692,113.18c-10.13,0-20.27-.06-30.4,0-5.83,0-11.4-.67-16.48-3.85a25.45,25.45,0,0,1-10.86-28.83,25.15,25.15,0,0,1,24-18C667.47,62.52,676.67,62.54,685.88,62.54Z" transform="translate(-10.26 -14.05)"/><path class="cls-2" d="M114.33,118.05c0,8.89,0,17.77,0,26.66,0,1.49-.41,1.86-1.85,1.83-4.39-.1-8.78-.12-13.17,0-1.62.05-1.9-.5-1.87-2,.09-5.3,0-10.61.06-15.92,0-1.21-.17-1.69-1.55-1.68q-23.55.08-47.1,0c-1.33,0-1.61.37-1.6,1.64.08,5.43,0,10.86.07,16.29,0,1.31-.36,1.66-1.65,1.64q-7.14-.1-14.28,0c-1.25,0-1.51-.38-1.5-1.56q0-26.48,0-52.95a2.72,2.72,0,0,1,.89-2.1Q44.08,76.72,57.3,63.48a2.86,2.86,0,0,1,2.25-1q13,.06,26,0a3.11,3.11,0,0,1,2.4,1q12.61,12.68,25.31,25.27a3.53,3.53,0,0,1,1.14,2.74C114.31,100.4,114.33,109.22,114.33,118.05Zm-42.08-7.86c7.9,0,15.81,0,23.71,0,1.22,0,1.74-.22,1.71-1.59-.1-3.45-.06-6.91,0-10.36a2.66,2.66,0,0,0-.86-2.11q-8-7.95-16-16a2.67,2.67,0,0,0-2.1-.87q-6.12.06-12.23,0a2.82,2.82,0,0,0-2.26,1q-8.15,8.2-16.38,16.34a3.29,3.29,0,0,0-1,2.61c.06,3.08.09,6.17,0,9.25,0,1.36.32,1.77,1.73,1.76C56.43,110.16,64.34,110.19,72.25,110.19Z" transform="translate(-10.26 -14.05)"/><path class="cls-2" d="M311.64,118c0,8.88,0,17.77,0,26.65,0,1.35-.27,1.78-1.71,1.74-4.63-.1-9.27-.07-13.9,0-1,0-1.34-.27-1.33-1.32,0-5.55,0-11.11,0-16.66,0-1.21-.31-1.52-1.52-1.52q-23.53.07-47.08,0c-1.45,0-1.72.46-1.7,1.78.07,5.37,0,10.74.06,16.1,0,1.31-.34,1.65-1.64,1.63q-7-.12-14.08,0c-1.24,0-1.67-.2-1.66-1.56q.08-26.39,0-52.76a3.14,3.14,0,0,1,1-2.4q13.14-13.07,26.21-26.18a3.35,3.35,0,0,1,2.6-1q12.69.06,25.39,0a3.55,3.55,0,0,1,2.76,1.11q12.66,12.75,25.42,25.4a3.33,3.33,0,0,1,1.07,2.59C311.62,100.31,311.64,109.13,311.64,118Zm-42.2-7.89c8,0,15.93,0,23.89,0,1.23,0,1.54-.34,1.51-1.53-.08-3.51,0-7,0-10.54a2.61,2.61,0,0,0-.86-2.1Q286,88,278.12,80.1a2.66,2.66,0,0,0-2.11-.84q-6.19.06-12.41,0a2.62,2.62,0,0,0-2.1.83Q253.28,88.37,245,96.58a2.64,2.64,0,0,0-.89,2.1c0,3.26.08,6.53,0,9.8,0,1.3.33,1.63,1.62,1.62C253.63,110,261.54,110.07,269.44,110.07Z" transform="translate(-10.26 -14.05)"/><path class="cls-2" d="M920,117.73c0,8.89,0,17.78,0,26.66,0,1.28-.31,1.67-1.62,1.65q-6.87-.12-13.72,0c-1.24,0-1.55-.34-1.54-1.55.06-5.43,0-10.86.06-16.29,0-1.32-.38-1.61-1.65-1.61q-23.53.07-47.08,0c-1.26,0-1.67.26-1.65,1.59.09,5.43,0,10.87.07,16.3,0,1.17-.26,1.58-1.52,1.56-4.88-.08-9.76-.06-14.64,0-.94,0-1.27-.19-1.27-1.21q0-26.65,0-53.31a2.28,2.28,0,0,1,.78-1.76q13.46-13.4,26.86-26.83a2.5,2.5,0,0,1,2-.76q13.06,0,26.14,0a2.86,2.86,0,0,1,2.24,1Q906.22,75.92,919,88.64a3.13,3.13,0,0,1,1,2.43C920,100,920,108.85,920,117.73Zm-42.19-7.91c7.91,0,15.82,0,23.73,0,1.31,0,1.85-.21,1.8-1.69-.12-3.39-.07-6.79,0-10.18a2.85,2.85,0,0,0-.95-2.26q-8-7.87-15.86-15.84a2.88,2.88,0,0,0-2.27-.93c-4,0-8,0-12.05,0a3.07,3.07,0,0,0-2.4,1q-8.16,8.22-16.4,16.36a2.81,2.81,0,0,0-.91,2.26c0,3.21.08,6.42,0,9.63,0,1.28.3,1.65,1.61,1.64C862,109.79,869.89,109.82,877.8,109.82Z" transform="translate(-10.26 -14.05)"/><path class="cls-2" d="M130.89,104.27c0-13.45,0-26.9,0-40.35,0-1.56.43-1.92,2-1.91,19,.05,38.06,0,57.09,0,12.9,0,24,9.83,25.13,22.08,1.26,13.87-7.23,25.46-20.55,27.93a33.23,33.23,0,0,1-5.9.47q-19.56.06-39.11,0c-1.55,0-1.93.39-1.91,1.93.07,10,0,20,.06,30,0,1.37-.23,1.91-1.77,1.87-4.45-.12-8.9-.1-13.35,0-1.32,0-1.63-.38-1.63-1.66C130.91,131.18,130.89,117.73,130.89,104.27Zm38.53-8.64c6.79,0,13.58.05,20.37,0a8.13,8.13,0,0,0,0-16.26c-13.59,0-27.17,0-40.75,0-1.13,0-1.48.29-1.46,1.44.06,4.38.1,8.76,0,13.13,0,1.55.51,1.79,1.87,1.78C156.08,95.59,162.75,95.63,169.42,95.63Z" transform="translate(-10.26 -14.05)"/><path class="cls-2" d="M734.3,104.05c0-13.4,0-26.79,0-40.19,0-1.42.31-1.89,1.81-1.85,4.69.1,9.39.07,14.09,0,1.21,0,1.54.3,1.53,1.53-.05,10.06,0,20.12-.06,30.18,0,1.47.37,1.81,1.82,1.81q23.26-.09,46.54,0c1.52,0,2-.35,2-1.91-.07-9.94,0-19.87-.07-29.81,0-1.52.46-1.83,1.87-1.81,4.45.09,8.9.08,13.35,0,1.24,0,1.54.35,1.54,1.56q0,40.46,0,80.92c0,1.27-.3,1.69-1.62,1.66-4.39-.08-8.78-.13-13.17,0-1.77.07-2-.57-2-2.09.06-9.94,0-19.88.07-29.81,0-1.67-.43-2-2.05-2q-23.17.1-46.35,0c-1.53,0-1.94.34-1.93,1.9.08,10.06,0,20.12.08,30.18,0,1.44-.34,1.86-1.81,1.83-4.64-.1-9.27-.09-13.91,0-1.4,0-1.73-.37-1.73-1.76C734.32,131,734.3,117.5,734.3,104.05Z" transform="translate(-10.26 -14.05)"/><path class="cls-2" d="M532.17,104.27c0-13.45,0-26.91,0-40.37,0-1.57.45-1.93,2-1.89q6.76.15,13.53,0c1.49,0,2,.26,2,1.87-.09,10.06,0,20.12-.07,30.19,0,1.38.26,1.87,1.78,1.85,5.87-.1,11.74-.08,17.61,0a3.69,3.69,0,0,0,2.9-1.19q15.69-15.76,31.43-31.47a3.62,3.62,0,0,1,2.9-1.22c3,.08,6.06,0,9.08,0,.95,0,1.31.24,1.29,1.24,0,3.46-.06,6.91,0,10.37a2.81,2.81,0,0,1-1.15,2.18c-9.31,9.11-18.6,18.24-28,27.29-1.08,1-.86,1.45,0,2.34,9.33,9.18,18.61,18.42,27.93,27.61a3.41,3.41,0,0,1,1.15,2.75c-.08,2.9-.09,5.8,0,8.7,0,1.32-.23,1.9-1.7,1.78a20.91,20.91,0,0,0-5,0c-3.93.61-6.59-1.08-9.29-3.81-9.46-9.57-19.18-18.88-28.77-28.33a3.33,3.33,0,0,0-2.62-1c-5.94,0-11.87.06-17.8,0-1.41,0-1.84.29-1.83,1.78.07,9.87,0,19.75.07,29.63,0,1.34-.26,1.77-1.7,1.74q-6.95-.15-13.91,0c-1.46,0-1.84-.37-1.83-1.83C532.2,131.06,532.17,117.67,532.17,104.27Z" transform="translate(-10.26 -14.05)"/><path class="cls-2" d="M131.09,190.82c-19,0-38,0-57.07,0-1.65,0-2.1-.39-2-2,.14-3,0-3,3.07-3q56.52,0,113,0c1.87,0,2.59.44,2.27,2.31a6.15,6.15,0,0,0,0,1.66c.07.83-.31,1.11-1.09,1a10.25,10.25,0,0,0-1.11,0Z" transform="translate(-10.26 -14.05)"/><path class="cls-2" d="M818.61,190.82c-19,0-37.93,0-56.89,0-1.71,0-2.56-.29-2.22-2.15a6.22,6.22,0,0,0,0-1.67c-.09-.86.21-1.27,1.12-1.17a11.28,11.28,0,0,0,1.3,0q56.79,0,113.59,0c1.8,0,2.63.34,2.26,2.25a3.73,3.73,0,0,0,0,1.29c.22,1.3-.42,1.61-1.55,1.45a7,7,0,0,0-.92,0Z" transform="translate(-10.26 -14.05)"/><path class="cls-3" d="M505,187.82c0,4.38,0,8.76,0,13.14,0,1.06-.31,1.31-1.34,1.31-3.34,0-3.34,0-3.34-3.21,0-2.59,0-5.19,0-7.78,0-1.13-.19-1.61-1.5-1.6-3.57,0-3.57,0-3.57,3.56,0,2.59,0,5.18,0,7.77,0,1-.25,1.24-1.23,1.26-3.5.08-3.5.12-3.5-3.42,0-7.9,0-15.79,0-23.69,0-1.38.24-1.92,1.78-1.86,3,.13,3,0,3,3,0,2.59.08,5.19,0,7.78-.06,1.28.41,1.49,1.56,1.48,3.52,0,3.52,0,3.52-3.56,0-2.4,0-4.81,0-7.22,0-1,.11-1.52,1.37-1.51,3.3,0,3.3-.05,3.3,3.22Z" transform="translate(-10.26 -14.05)"/><path class="cls-3" d="M358.23,187.67c0-4.26,0-8.51,0-12.77,0-1.12.16-1.61,1.47-1.59,3.26.05,3.26,0,3.26,3.29,0,2.6.05,5.19,0,7.78,0,1,.32,1.2,1.25,1.21,3.82.07,3.82.1,3.82-3.63,0-2.4.07-4.81,0-7.21,0-1.16.32-1.44,1.45-1.43,3.23,0,3.23,0,3.23,3.1,0,8.08,0,16.16,0,24.24,0,1.3-.3,1.66-1.61,1.62-3.08-.09-3.08,0-3.08-3.11,0-2.66,0-5.31,0-8,0-1.05-.15-1.53-1.39-1.53-3.68,0-3.68-.07-3.68,3.63,0,2.53,0,5.07,0,7.59,0,1-.22,1.37-1.31,1.38-3.42,0-3.42.08-3.42-3.32Z" transform="translate(-10.26 -14.05)"/><path class="cls-3" d="M426.72,188.11c2,1.25,2.55,3,2.68,5,.2,3-.26,6,.41,9-.14.06-.2.11-.25.11-5.34,0-4.59,1-4.7-4.4,0-1.6,0-3.21-.12-4.8s-1.19-2.43-2.84-2.55c-1.06-.08-1.54.12-1.5,1.36.09,3,0,5.92.05,8.88,0,1.11-.14,1.62-1.47,1.6-3.26-.05-3.26,0-3.26-3.29,0-8,0-16,0-24.06,0-1.32.36-1.68,1.64-1.61,2.16.1,4.33,0,6.49,0,3,.1,4.92,1.66,5.42,4.56a20.92,20.92,0,0,1,0,6.27A5.38,5.38,0,0,1,426.72,188.11Zm-6.29-6.23c0,1.17,0,2.34,0,3.51,0,.34-.11.71.37.91a3.1,3.1,0,0,0,3.85-1.94,12.66,12.66,0,0,0,0-5.13c-.4-1.95-1.95-1.79-3.36-1.72s-.69,1.28-.8,2A14.63,14.63,0,0,0,420.43,181.88Z" transform="translate(-10.26 -14.05)"/><path class="cls-3" d="M567,187.61c0-4.26.05-8.52,0-12.77,0-1.24.35-1.58,1.55-1.52,2.09.09,4.2,0,6.3,0,3.7,0,6.1,2.22,6.18,5.93q.19,8.52,0,17c-.08,3.72-2.48,5.89-6.19,5.93-2.16,0-4.32-.05-6.48,0-1.05,0-1.37-.27-1.35-1.33C567.06,196.49,567,192.05,567,187.61Zm4.71.19c0,3,0,6,0,9,0,.94.23,1.27,1.23,1.28,2.78,0,3.54-.55,3.58-3.41.07-4.62,0-9.24,0-13.86a6.56,6.56,0,0,0-.26-1.82c-.6-2-2.29-1.55-3.7-1.52s-.78,1.29-.8,2C571.69,182.25,571.74,185,571.74,187.8Z" transform="translate(-10.26 -14.05)"/><path class="cls-3" d="M681.63,187.79c0-4.32,0-8.64,0-13,0-1.24.35-1.56,1.55-1.51,2.09.09,4.2,0,6.3,0,3.7,0,6.1,2.22,6.18,5.94q.2,8.51,0,17c-.08,3.71-2.49,5.88-6.19,5.92-2.16,0-4.33-.05-6.49,0-1,0-1.36-.28-1.34-1.34C681.66,196.55,681.63,192.17,681.63,187.79Zm4.71-.06c0,2.71,0,5.42,0,8.13,0,.74-.49,1.88.4,2.14a4.16,4.16,0,0,0,3.41-.35,2.17,2.17,0,0,0,.86-1.94q.3-7.94,0-15.88a2.61,2.61,0,0,0-.22-1.08c-.81-1.67-2.38-1.29-3.73-1.22s-.68,1.23-.7,1.88C686.3,182.18,686.34,185,686.34,187.73Z" transform="translate(-10.26 -14.05)"/><path class="cls-3" d="M224.35,187.76c0-4.26,0-8.52,0-12.77,0-1.24.2-1.76,1.58-1.68,2,.13,4.07,0,6.11,0,3.86,0,6.26,2.16,6.34,6,.12,5.67.13,11.36,0,17-.09,3.72-2.5,5.85-6.23,5.89-2.16,0-4.33-.06-6.48,0-1.1,0-1.33-.35-1.32-1.37C224.38,196.52,224.35,192.14,224.35,187.76Zm4.71-.15c0,3.08,0,6.16,0,9.24,0,.92.21,1.27,1.22,1.28,2.78,0,3.54-.55,3.58-3.4.08-4.62,0-9.24,0-13.86a6.21,6.21,0,0,0-.26-1.82c-.59-2-2.28-1.56-3.69-1.53s-.79,1.28-.81,1.95C229,182.18,229.06,184.89,229.06,187.61Z" transform="translate(-10.26 -14.05)"/><path class="cls-3" d="M664.51,202.24c-1.63.49-2.23-.32-2.42-2.22-.3-2.91-.46-2.8-3.58-2.94-1.72-.07-2.75.25-2.58,2.21,0,.42-.22.85-.22,1.27,0,1.1-.21,1.78-1.65,1.73-2.92-.1-2.92,0-2.45-2.88,1.33-8.27,2.69-16.52,4-24.79.16-1,.49-1.35,1.49-1.29,1.78.1,4-.55,5.22.31s.82,3.27,1.1,5q1.74,10.65,3.39,21.32C667.12,202.24,667.09,202.24,664.51,202.24ZM656.83,193c1.18,0,2.28,0,3.38,0,.39,0,.87.13.76-.63-.63-4-1.22-8-1.83-12.06h-.39C658.12,184.47,657.48,188.65,656.83,193Z" transform="translate(-10.26 -14.05)"/><path class="cls-3" d="M285.8,187.81c0,2.65,0,5.31,0,8,0,1.83.86,2.78,2.33,2.68s2.23-1.11,2.22-2.63a14.93,14.93,0,0,0,0-2.22c-.32-1.87.52-2.13,2.21-2.18,1.91-.06,2.52.5,2.23,2.32a15.25,15.25,0,0,0,0,2c-.17,5.55-4.83,8.52-10,6.35a5.55,5.55,0,0,1-3.4-4.5c-.58-3.37-.26-6.77-.26-10.16,0-3.13-.31-6.29.25-9.41a5.71,5.71,0,0,1,5.86-5.07c4.23-.13,6.41,1.32,7.25,4.76a12,12,0,0,1,.28,2.93c0,2.52,0,2.41-2.54,2.55-1.59.08-2.08-.46-1.88-2a10,10,0,0,0,0-2,2.23,2.23,0,0,0-4.45.08c0,2.84,0,5.68,0,8.51Z" transform="translate(-10.26 -14.05)"/><path class="cls-3" d="M628.49,187.86c0,2.65,0,5.3,0,7.95,0,1.52.62,2.52,2.21,2.64,1.44.11,2.26-.87,2.35-2.68,0-.43,0-.86,0-1.29,0-3.11.58-3.55,3.72-3,.59.11.7.34.68.83a28.49,28.49,0,0,1-.28,5.53c-.83,3.44-3,4.9-7.23,4.78a5.73,5.73,0,0,1-5.89-5,44.63,44.63,0,0,1-.25-8.49c0-3.63-.34-7.28.24-10.89A5.7,5.7,0,0,1,630,173c4.22-.11,6.42,1.34,7.19,4.81a13.2,13.2,0,0,1,.28,2.74c.05,2.66,0,2.58-2.57,2.68-1.43.06-2.06-.31-1.83-1.82a11.31,11.31,0,0,0,0-1.84,2.15,2.15,0,0,0-2.25-2.39,2.11,2.11,0,0,0-2.26,2.37c0,2.78,0,5.55,0,8.33Z" transform="translate(-10.26 -14.05)"/><path class="cls-3" d="M330,187.65c0-4.13.11-8.26-.05-12.38-.06-1.73.52-2.08,2.06-2s3.21,0,4.81,0c4.14,0,6.17,1.69,6.67,5.8a24.44,24.44,0,0,1-.06,7c-.6,3.67-2.6,5.34-6.32,5.36-2.39,0-2.39,0-2.39,2.43s-.06,4.68,0,7c0,1.08-.34,1.31-1.36,1.32-3.38,0-3.38.07-3.38-3.35Zm4.72-5.24c0,1.29,0,2.58,0,3.88,0,.36-.08.77.27,1,1.22.86,3.78-.35,3.86-1.9a58.26,58.26,0,0,0,0-5.91c-.08-1.57-1-2.06-3.1-2-1.74,0-.92,1.26-1,2A22.31,22.31,0,0,0,334.76,182.41Z" transform="translate(-10.26 -14.05)"/><path class="cls-3" d="M388.27,187.69c0-4.26.06-8.52,0-12.77,0-1.34.39-1.64,1.65-1.6,3.15.09,6.3.07,9.45,0,1.1,0,1.64.23,1.44,1.41a4.05,4.05,0,0,0,0,1.3c.22,1.3-.42,1.54-1.56,1.48-1.67-.08-3.34,0-5,0-.78,0-1.28.07-1.25,1.06.07,2,.05,4,0,5.92,0,.8.25,1.09,1.06,1.06,1.3-.06,2.6,0,3.89,0,1-.06,1.37.27,1.26,1.25a7.68,7.68,0,0,0,0,1.66c.1.93-.2,1.34-1.21,1.27-1.3-.08-2.6,0-3.89,0-.93,0-1.14.31-1.12,1.16.06,2,.07,4.08,0,6.11,0,1,.35,1.25,1.29,1.22,1.73-.07,3.46,0,5.19,0,1-.05,1.48.26,1.34,1.33a5.64,5.64,0,0,0,0,1.48c.2,1.24-.43,1.39-1.47,1.38-3.22-.06-6.43-.08-9.64,0-1.16,0-1.45-.31-1.43-1.44C388.31,196.45,388.27,192.07,388.27,187.69Z" transform="translate(-10.26 -14.05)"/><path class="cls-3" d="M520.67,187.61c0-4.26.05-8.52,0-12.77,0-1.24.35-1.55,1.55-1.52,3.14.08,6.3.07,9.45,0,1.15,0,1.74.21,1.55,1.49a6.67,6.67,0,0,0,0,1.67c.08.85-.33,1-1.09,1-1.85,0-3.7,0-5.55,0-.89,0-1.26.25-1.17,1.15a12.18,12.18,0,0,1,0,1.48c0,1.72-.56,3.9.27,5s3.11.29,4.76.34c.85,0,1.26.23,1.17,1.15a8.8,8.8,0,0,0,0,1.85c.14,1.06-.39,1.23-1.29,1.19-1.29-.06-2.6,0-3.89,0-.83,0-1,.25-1,1.05q.07,3.13,0,6.29c0,.9.3,1.16,1.17,1.14,1.79-.06,3.59,0,5.38,0,.93,0,1.38.21,1.26,1.23a10.39,10.39,0,0,0,0,1.85c.06.75-.13,1.11-1,1.1-3.45,0-6.91-.06-10.37,0-1.1,0-1.16-.49-1.15-1.34C520.69,196.49,520.67,192.05,520.67,187.61Z" transform="translate(-10.26 -14.05)"/><path class="cls-3" d="M596.33,187.77c0-4.26,0-8.52,0-12.77,0-1.22.17-1.74,1.57-1.69,3.14.11,6.3.09,9.45,0,1.2,0,1.72.28,1.52,1.52a3.69,3.69,0,0,0,0,1.1c.15,1.16-.2,1.67-1.48,1.58-1.66-.12-3.34,0-5-.05-1.07-.06-1.37.32-1.33,1.36.08,1.85.06,3.7,0,5.55,0,.9.29,1.2,1.18,1.14s1.87.1,2.77,0c1.89-.29,2.33.43,2.34,2.28s-.66,2-2.13,1.92c-4.14-.08-4.14,0-4.14,4,0,4.43,0,4.43,4.52,4.43h.56c2.79,0,3.26.62,2.73,3.46-.11.58-.36.69-.85.69-3.58,0-7.16,0-10.74,0-1.13,0-.93-.7-.93-1.35Z" transform="translate(-10.26 -14.05)"/><path class="cls-3" d="M710.93,187.69c0-4.26.06-8.52,0-12.77,0-1.34.39-1.64,1.65-1.6,3.15.09,6.3.07,9.45,0,1.1,0,1.63.23,1.44,1.41a4.05,4.05,0,0,0,0,1.3c.22,1.3-.42,1.54-1.57,1.48-1.66-.08-3.33,0-5,0-.78,0-1.28.07-1.25,1.06.07,2,0,4,0,5.92,0,.8.25,1.09,1.06,1.06,1.3-.06,2.6,0,3.89,0,1-.06,1.36.27,1.26,1.25a7.68,7.68,0,0,0,0,1.66c.1.93-.2,1.34-1.22,1.27-1.29-.08-2.59,0-3.88,0-.94,0-1.14.31-1.12,1.16.06,2,.07,4.08,0,6.11,0,1,.35,1.25,1.29,1.22,1.72-.07,3.46,0,5.18,0,1-.05,1.49.26,1.35,1.33a5.24,5.24,0,0,0,0,1.48c.2,1.24-.43,1.39-1.48,1.38-3.21-.06-6.42-.08-9.63,0-1.16,0-1.45-.31-1.43-1.44C711,196.45,710.93,192.07,710.93,187.69Z" transform="translate(-10.26 -14.05)"/><path class="cls-3" d="M253.64,187.72c0-4.32.05-8.64,0-13,0-1.14.28-1.47,1.43-1.44,3.21.08,6.42.09,9.63,0,1.29,0,1.51.43,1.49,1.58-.05,2.6,0,2.6-2.66,2.6-1.3,0-2.6.06-3.89,0-.95-.05-1.32.22-1.28,1.23.07,1.84.06,3.7,0,5.55,0,.93.2,1.36,1.22,1.27s1.87.09,2.78,0c1.73-.24,2.18.33,2.3,2.14.15,2.37-1.12,2-2.57,2-3.71,0-3.74,0-3.7,3.69,0,1.53-.67,3.51.28,4.46s2.94.18,4.46.29c.13,0,.25,0,.37,0,2.67,0,3.26.82,2.69,3.51-.17.76-.63.63-1.09.63-3.46,0-6.92,0-10.38,0-1.19,0-1.06-.66-1.06-1.41C253.65,196.48,253.64,192.1,253.64,187.72Z" transform="translate(-10.26 -14.05)"/><path class="cls-3" d="M467,189.93c0-3.64-.06-7.28,0-10.92,0-1.23-.34-1.71-1.56-1.53-.36.06-.75,0-1.1,0-1.68.29-2.09-.38-2.13-2.05-.05-1.85.51-2.22,2.24-2.15,3.46.15,6.92.08,10.38,0,1.11,0,1.64.13,1.6,1.47-.09,2.7,0,2.82-2.76,2.66-1.72-.1-2.11.45-2.08,2.11.09,7,0,13.94.07,20.91,0,1.41-.3,2-1.78,1.79a4,4,0,0,0-1.3,0c-1.28.2-1.67-.28-1.64-1.59C467.08,197.08,467,193.51,467,189.93Z" transform="translate(-10.26 -14.05)"/><path class="cls-3" d="M314.36,188c0,4.25,0,8.5,0,12.75,0,1.17-.25,1.57-1.5,1.55-3.23-.05-3.23,0-3.23-3.13,0-8,0-16,0-24,0-1.41.29-1.9,1.79-1.83,3,.12,3,0,3,3Z" transform="translate(-10.26 -14.05)"/><path class="cls-3" d="M449,235.78c.43-2.93.95-5.85,1.24-8.79.2-2.06,1.62-1.29,2.69-1.42,1.47-.18,1,1,1,1.61,0,4.32,0,8.64,0,13,0,.94-.08,1.41-1.24,1.41s-1.13-.55-1.12-1.35c0-1.93,0-3.86,0-5.79l-.59,0c-.29,1.91-.58,3.82-.85,5.74-.12.85-.25,1.43-1.41,1.44s-1.26-.62-1.39-1.43a59.71,59.71,0,0,0-1.59-7.6c0,2.53,0,5.05,0,7.57,0,.7.27,1.47-1,1.45-1.1,0-1.16-.52-1.15-1.36,0-4.45,0-8.89,0-13.34,0-.71-.06-1.51,1-1.25s2.34-.88,2.62,1c.45,3,1,6.07,1.44,9.1Z" transform="translate(-10.26 -14.05)"/><path class="cls-3" d="M518,30.3c0-2.65,0-5.3,0-7.94,0-.93.17-1.36,1.2-1.26s2,0,3,0c1.64,0,3.36.07,4.1,1.82a5.87,5.87,0,0,1-.38,6c-.39.54-.66.67,0,1.36,1.93,2.12,1.52,4.73.75,7.14-.67,2.11-2.67,2.25-4.6,2.24-4,0-4,0-4-4ZM520.93,34a6.83,6.83,0,0,0,0,1.28c.14.68-.61,1.84,1,1.76,1.26-.06,2.18-.35,2.13-1.85,0-.86,0-1.71-.06-2.56-.12-1.44-1.25-1.48-2.3-1.51-1.36,0-.61,1-.76,1.6A5,5,0,0,0,520.93,34Zm-.15-7.89c.73.69-.94,2.42,1.25,2.4,1.65,0,1.78-1.14,1.81-2.4s-.31-2.51-2-2.4C519.91,23.86,521.49,25.42,520.78,26.13Z" transform="translate(-10.26 -14.05)"/><path class="cls-3" d="M553.22,30.26c0-2.64,0-5.29,0-7.93,0-1,.25-1.3,1.23-1.23,1.28.08,2.58,0,3.88,0,2.38.12,3.79,1.43,3.85,3.83q.15,5.45,0,10.89a3.53,3.53,0,0,1-3.36,3.73c-1.58.16-3.2,0-4.8.07-1.07,0-.77-.73-.77-1.27C553.21,35.68,553.22,33,553.22,30.26Zm2.94-.07c0,1.78,0,3.57,0,5.34,0,.53-.54,1.49.68,1.51,1,0,2.25.08,2.29-1.22.13-3.62.13-7.25,0-10.86,0-1.31-1.31-1.24-2.3-1.23-1.21,0-.66,1-.68,1.49C556.11,26.88,556.16,28.54,556.16,30.19Z" transform="translate(-10.26 -14.05)"/><path class="cls-3" d="M491.67,30.52c0,2.59-.11,5.19,0,7.77.08,1.51-.73,1.3-1.68,1.38-1.19.11-1.47-.33-1.41-1.44.1-1.72-.07-3.46.06-5.18.1-1.36-.43-1.63-1.67-1.59s-1.85,0-1.72,1.51c.15,1.84-.05,3.7.06,5.55.07,1.33-.74,1.1-1.53,1.13s-1.49.09-1.47-1.17q.12-8.14,0-16.29c0-1.22.63-1.12,1.38-1.07s1.68-.38,1.61,1c-.08,1.72.08,3.46,0,5.18-.1,1.34.37,1.6,1.64,1.61s1.89-.23,1.75-1.71.07-3.21-.06-4.8c-.11-1.29.5-1.39,1.5-1.34s1.65-.11,1.58,1.28C491.58,25.09,491.67,27.81,491.67,30.52Z" transform="translate(-10.26 -14.05)"/><path class="cls-3" d="M420,21.21c1.81-.56,2.26.3,2.49,2,.68,4.94,1.61,9.85,2.35,14.78.07.49.94,1.62-.48,1.64-.92,0-2.46.72-2.39-1.25.07-1.81-.82-2.2-2.48-2.1-1.17.06-1.59.35-1.7,1.53-.05.67.34,1.83-1.12,1.88s-1.91-.1-1.59-1.74c.91-4.84,1.68-9.71,2.36-14.6C417.68,21.67,418.05,20.59,420,21.21Zm0,4.24-.26-.09c-.37,2.43-.76,4.85-1.11,7.28-.05.32-.36.87.09,1a5.81,5.81,0,0,0,2.2,0c.64-.12.23-.72.17-1.09C420.73,30.19,420.35,27.82,420,25.45Z" transform="translate(-10.26 -14.05)"/><path class="cls-3" d="M468.91,21.22c1.82-.51,2.3.21,2.53,1.87.68,5,1.61,10,2.37,15,.07.48.91,1.63-.58,1.56-.87,0-2.15.68-2.34-1.15-.22-2.17-1.07-2.6-3.27-2.17-1.17.23-.68,1.15-.84,1.77-.22.91-.19,1.72-1.61,1.64-1.24-.07-1.37-.39-1.18-1.49.86-4.92,1.7-9.84,2.4-14.78C466.63,21.74,466.85,20.41,468.91,21.22Zm0,4.19-.26,0c-.38,2.49-.81,5-1.12,7.46-.2,1.58,1.08.61,1.65.79.77.24,1.05-.12.89-1C469.65,30.27,469.3,27.84,468.92,25.41Z" transform="translate(-10.26 -14.05)"/><path class="cls-3" d="M543.71,39.6c-1.34.36-1.59-.42-1.63-1.49s-.18-2-1.76-1.85c-1.27.14-2.45-.07-2.38,1.8,0,.91-.13,1.73-1.56,1.65-1.22-.08-1.38-.37-1.18-1.49.88-5.16,1.79-10.32,2.47-15.51.29-2.24,1.76-1.43,2.94-1.6s1.78.18,2,1.6c.71,5.13,1.61,10.23,2.48,15.33C545.27,39.22,545.24,40,543.71,39.6Zm-3.57-14.15-.27-.05c-.37,2.42-.75,4.83-1.1,7.26,0,.32-.36.86.1,1a5.44,5.44,0,0,0,2.2,0c.62-.13.22-.73.16-1.09C540.89,30.19,540.51,27.82,540.14,25.45Z" transform="translate(-10.26 -14.05)"/><path class="cls-3" d="M508.54,39.59c-1.27.3-1.62-.26-1.69-1.34s.09-2.07-1.62-2c-1.51.07-2.65.07-2.57,2,0,.67,0,1.4-1.18,1.41-1.36,0-1.76-.18-1.49-1.69q1.39-7.55,2.43-15.15c.21-1.56.87-1.93,2.26-1.75,1.16.15,2.44-.49,2.7,1.65.62,5.07,1.6,10.1,2.42,15.15C510,39,510.36,40.22,508.54,39.59Zm-3.65-14.21-.23,0c-.38,2.46-.77,4.92-1.13,7.39,0,.31-.36.83.17.92a6.5,6.5,0,0,0,2.2,0c.45-.08.18-.62.13-1C505.66,30.24,505.27,27.81,504.89,25.38Z" transform="translate(-10.26 -14.05)"/><path class="cls-3" d="M586.35,39.81a4.2,4.2,0,0,1-4.32-5c.12-1.08.84-.73,1.34-.7s1.49-.5,1.44.74a5.62,5.62,0,0,0,0,.92,1.43,1.43,0,0,0,1.63,1.39,1.4,1.4,0,0,0,1.36-1.47,3.48,3.48,0,0,0-.9-2.72c-.81-.85-1.66-1.65-2.51-2.45a6.61,6.61,0,0,1-2.17-6.34c.46-2.35,2.18-3.48,4.82-3.22A3.86,3.86,0,0,1,590.76,25c0,.63,0,1.21-.81,1-.65-.13-1.72.65-1.9-.69s-.6-2.1-2-1.65-1.08,1.72-.83,2.66c.37,1.42,1.55,2.33,2.62,3.26,1.83,1.6,3.13,3.45,2.93,6.07S589.08,39.85,586.35,39.81Z" transform="translate(-10.26 -14.05)"/><path class="cls-3" d="M478.34,238.44c0,.55,0,1.11,0,1.66.07.89,0,1.49-1.2,1.45-1.08,0-1.32-.37-1.31-1.39.05-4.44,0-8.88,0-13.32,0-.91.17-1.43,1.21-1.28a7,7,0,0,0,.92,0c1.69.07,3.75-.49,4.65,1.42a6.14,6.14,0,0,1-.38,6.47c-.27.37-.31.52,0,.87,1.81,2,.64,4.51,1.06,6.76.13.7-.87.32-1.34.4s-1.13,0-1.13-.78c0-1,0-2,0-3a5.75,5.75,0,0,0-.27-1.81c-.29-.76-1-.81-1.73-.71s-.39.77-.43,1.18A19.61,19.61,0,0,0,478.34,238.44Zm0-8.11a4.56,4.56,0,0,0,0,1.11c.14.53-.53,1.45.64,1.53s1.69-.37,1.72-1.44a16.94,16.94,0,0,0-.08-2.76c-.13-1-.93-1-1.71-1-1,0-.49.8-.57,1.24A6.94,6.94,0,0,0,478.34,230.33Z" transform="translate(-10.26 -14.05)"/><path class="cls-3" d="M512.53,233.69c0,2.16,0,4.32,0,6.47,0,1-.16,1.38-1.28,1.39s-1.25-.56-1.22-1.46c.05-1.35-.07-2.72,0-4.06s-.58-1.18-1.45-1.22-1.48.1-1.4,1.26c.11,1.47,0,3,.05,4.44.07,1.05-.5,1-1.24,1s-1.29,0-1.28-1c0-4.62.05-9.24,0-13.87,0-1.18.66-1,1.41-1.08.93-.08,1.15.28,1.12,1.14-.07,1.6.07,3.21-.05,4.81-.08,1.16.53,1.14,1.33,1.11s1.61.21,1.52-1.13c-.12-1.59,0-3.21,0-4.8-.07-1.14.55-1.1,1.36-1.13s1.18.2,1.15,1.11C512.49,229,512.53,231.35,512.53,233.69Z" transform="translate(-10.26 -14.05)"/><path class="cls-3" d="M381.8,231.86c3.19-1.54,4.88-.51,4.93,2.86a34.22,34.22,0,0,1,0,3.51,3.34,3.34,0,0,1-3.71,3.28c-2.18,0-3.56-1.18-3.64-3.34-.1-3.08-.11-6.17,0-9.25a3.24,3.24,0,0,1,3.44-3.35c2.13-.09,3.58,1,3.85,2.9.06.45.45,1.27-.45,1.29-.6,0-1.59.61-1.81-.59-.17-.93-.58-1.54-1.59-1.31s-1,1-1,1.75Zm2.42,4.47h0c0-.49,0-1,0-1.46,0-.81-.23-1.49-1.2-1.5s-1.24.64-1.25,1.45q0,1.65,0,3.3a1.19,1.19,0,0,0,2.38,0C384.25,237.55,384.22,236.94,384.22,236.33Z" transform="translate(-10.26 -14.05)"/><path class="cls-3" d="M424.58,235.16c-3.11,1.59-4.83.57-4.91-2.71,0-1.24-.05-2.48.05-3.7a3.24,3.24,0,0,1,3.4-3.18c2.16-.09,3.65.87,3.83,2.9a52.16,52.16,0,0,1,0,10.15c-.22,2.1-1.78,3.07-4,2.88a3.25,3.25,0,0,1-3.2-3.19c0-.48-.16-1.11.62-1,.57.06,1.46-.49,1.63.58s.56,1.56,1.57,1.38,1.05-1.06,1-1.89C424.58,236.67,424.58,236,424.58,235.16Zm0-4.18c0-.64,0-1.13,0-1.61,0-.84-.23-1.5-1.15-1.55s-1.31.71-1.34,1.59a10.15,10.15,0,0,0,0,1.46c.12,1-.54,2.73,1.19,2.77C425.27,233.69,424.33,231.87,424.58,231Z" transform="translate(-10.26 -14.05)"/><path class="cls-3" d="M572.15,233.53c0-1.54-.07-3.09,0-4.62.11-2.16,1.44-3.32,3.62-3.34s3.64,1.13,3.72,3.26c.12,3.14.12,6.29,0,9.43-.08,2.12-1.55,3.27-3.73,3.25a3.29,3.29,0,0,1-3.61-3.36C572.09,236.62,572.15,235.07,572.15,233.53Zm4.9,0c0-1.42,0-2.84,0-4.26,0-.78-.31-1.35-1.12-1.4s-1.34.55-1.35,1.4q0,4.26,0,8.52c0,.83.32,1.51,1.26,1.5s1.23-.64,1.22-1.5C577,236.33,577.05,234.91,577.05,233.49Z" transform="translate(-10.26 -14.05)"/><path class="cls-3" d="M543.22,233.43c0-1.48-.06-3,0-4.44a3.29,3.29,0,0,1,3.55-3.42c2.26,0,3.74,1.15,3.82,3.36.1,3.08.11,6.17,0,9.25-.08,2.21-1.58,3.39-3.85,3.33a3.33,3.33,0,0,1-3.52-3.46c0-.12,0-.25,0-.37v-4.25Zm4.89.28v-4.63a1.22,1.22,0,1,0-2.43-.06c0,3,0,6,0,9.07a1.11,1.11,0,0,0,1.19,1.16,1.14,1.14,0,0,0,1.24-1.28C548.12,236.55,548.11,235.13,548.11,233.71Z" transform="translate(-10.26 -14.05)"/><path class="cls-3" d="M467.63,241.47c-1.25.39-1.31-.54-1.31-1.33,0-1.38-.63-1.61-1.91-1.66s-1.59.72-1.55,1.66c.06,1.37-.71,1.52-1.73,1.35-1.32-.22-.51-1.18-.43-1.7.61-4.27,1.38-8.51,1.95-12.78.16-1.21.58-1.6,1.71-1.45,1,.13,2.16-.5,2.39,1.34.55,4.46,1.28,8.89,2,13.32C469,241.35,468.75,241.71,467.63,241.47Zm-3.16-12.27c-.35,2.28-.62,4.26-1,6.22-.18,1,.47.94,1.08.88.45,0,1.27.33,1.06-.7C465.23,233.58,465.23,231.47,464.47,229.2Z" transform="translate(-10.26 -14.05)"/><path class="cls-3" d="M490.19,233.59c0-1.55,0-3.09,0-4.63a3.09,3.09,0,0,1,2.12-3.14,3.91,3.91,0,0,1,4,.59c1.23,1,1.17,2.53,1.07,4-.06.87-.83.51-1.32.56s-1,0-1-.72c0-1,.34-2.45-1.26-2.33s-1.16,1.74-1.2,2.8c-.07,2.1,0,4.2,0,6.3,0,1-.22,2.21,1.21,2.26s1.27-1.2,1.26-2.17c0-.8-.18-1.58,1.14-1.53,1,0,1.21.34,1.23,1.28.06,3.43-1.45,5.12-4.33,4.69a3.25,3.25,0,0,1-2.91-3.29C490.13,236.67,490.19,235.13,490.19,233.59Z" transform="translate(-10.26 -14.05)"/><path class="cls-3" d="M393.35,31.87c0,2.21-.08,4.43,0,6.64.06,1.32-.72,1.13-1.52,1.14s-1.5.13-1.47-1.15c.08-4.44,0-8.87.06-13.3,0-1.22-.32-1.67-1.53-1.49s-1.63,0-1.62-1.4.83-1.19,1.66-1.19c2.09,0,4.19.08,6.28,0,1.25-.07,1.16.58,1.21,1.44s-.32,1.36-1.25,1.18c-1.57-.29-2,.36-1.88,1.88C393.45,27.67,393.35,29.77,393.35,31.87Z" transform="translate(-10.26 -14.05)"/><path class="cls-3" d="M561.3,241.51h-.75c-2.95,0-3.3-.47-2.51-3.41a9.52,9.52,0,0,1,2.63-4,6.53,6.53,0,0,0,2-4.24c0-.92,0-2-1.27-2s-1.31,1-1.22,1.87c.1,1.12-.24,1.49-1.42,1.46s-1-.85-1-1.51c.07-2.82,1.39-4.2,3.88-4.09s3.52,1.58,3.43,4.3a7.66,7.66,0,0,1-1.72,4.4c-.44.6-1,1.1-1.45,1.69-.7.9-2,1.81-1.53,2.94.4.92,1.87.25,2.86.36.81.09,1.7-.26,1.67,1.21s-.93,1-1.64,1S562,241.51,561.3,241.51Z" transform="translate(-10.26 -14.05)"/><path class="cls-3" d="M368.53,241.51h-1.11c-2.73,0-2.77-.08-2.37-2.78a8.29,8.29,0,0,1,2.58-4.39,6.89,6.89,0,0,0,2.21-4.36c0-.92.08-2-1.17-2.13s-1.38,1-1.32,2-.24,1.37-1.32,1.37-1.08-.66-1.06-1.42c0-2.84,1.32-4.24,3.79-4.18s3.66,1.58,3.52,4.39a8.25,8.25,0,0,1-2.36,5.1,13.58,13.58,0,0,0-2.27,2.91c-.39.81-.35,1.42.85,1.32.74-.07,1.48,0,2.22,0s1.42-.09,1.39,1.1-.5,1.2-1.35,1.15S369.28,241.51,368.53,241.51Z" transform="translate(-10.26 -14.05)"/><path class="cls-3" d="M408.91,241.51H408c-2.86,0-3-.18-2.46-3a8.55,8.55,0,0,1,2.57-4.2,6.86,6.86,0,0,0,2.18-4.37c0-.92.05-2-1.23-2.09s-1.33.93-1.26,1.83c.07,1.05-.13,1.54-1.38,1.51-1.43,0-1-1-1-1.67.1-2.72,1.39-4,3.82-3.94s3.55,1.54,3.48,4.26a7,7,0,0,1-1.29,3.8c-.47.72-1.08,1.34-1.61,2-.79,1-2.3,2-1.8,3.21.43,1.06,2.08.3,3.18.38.87.06,1.33.11,1.33,1.18s-.61,1.12-1.4,1.09S409.65,241.51,408.91,241.51Z" transform="translate(-10.26 -14.05)"/><path class="cls-3" d="M532.38,241.51h-.74c-3,0-3.31-.45-2.54-3.4a9.58,9.58,0,0,1,2.63-4,6.56,6.56,0,0,0,2-4.23c0-.93,0-2-1.25-2.07s-1.32,1-1.24,1.85c.09,1.09-.2,1.52-1.4,1.48-1.45,0-1-1-1-1.68.1-2.72,1.41-4,3.84-3.92s3.54,1.57,3.45,4.28a7.49,7.49,0,0,1-1.6,4.26c-.43.6-1,1.12-1.43,1.7-.75.95-2.16,1.89-1.66,3.08.42,1,2,.28,3,.36.85.06,1.52-.07,1.5,1.2s-.68,1.07-1.43,1.06S533.13,241.51,532.38,241.51Z" transform="translate(-10.26 -14.05)"/><path class="cls-3" d="M433.06,30.27c0-2.59.06-5.18,0-7.77,0-1.16.29-1.44,1.43-1.42s1.6.21,1.57,1.5c-.09,4.31,0,8.63-.06,12.94,0,1.15.2,1.73,1.48,1.54a16.31,16.31,0,0,1,1.85,0c.88,0,1.6-.15,1.62,1.25s-.7,1.39-1.68,1.37c-1.61,0-3.22-.1-4.82,0-1.21.09-1.42-.36-1.39-1.45C433.11,35.57,433.06,32.92,433.06,30.27Z" transform="translate(-10.26 -14.05)"/><path class="cls-3" d="M449,30.24c0-2.59.07-5.18,0-7.77-.05-1.22.39-1.42,1.47-1.38s1.57,0,1.54,1.34c-.09,4.37,0,8.75-.07,13.13,0,1.21.31,1.67,1.52,1.5.61-.08,1.24,0,1.85,0,.93,0,1.59-.07,1.58,1.28s-.51,1.41-1.53,1.34c-2.07-.16-4.85.87-6-.4-1-1.11-.28-3.86-.3-5.88C449,32.33,449,31.28,449,30.24Z" transform="translate(-10.26 -14.05)"/><path class="cls-3" d="M353,30.24c0-2.65.07-5.3,0-7.94-.05-1.24.56-1.25,1.44-1.19s1.57-.25,1.56,1.11c-.07,5.41-.08,10.83,0,16.24,0,1.47-.85,1.11-1.66,1.2-1,.12-1.37-.24-1.34-1.3C353,35.65,353,33,353,30.24Z" transform="translate(-10.26 -14.05)"/><path class="cls-3" d="M364.82,30.37c0-2.7.07-5.41,0-8.12-.06-1.31.68-1.14,1.49-1.14s1.52-.14,1.51,1.16q-.1,8.11,0,16.24c0,1.31-.72,1.13-1.53,1.14s-1.52.13-1.47-1.15C364.89,35.79,364.82,33.08,364.82,30.37Z" transform="translate(-10.26 -14.05)"/><path class="cls-3" d="M376.69,30.3c0-2.65.06-5.3,0-7.94,0-1.13.4-1.34,1.38-1.26s1.64-.18,1.62,1.24q-.14,8,0,16.06c0,1.4-.73,1.21-1.6,1.26s-1.44-.07-1.4-1.24C376.75,35.72,376.69,33,376.69,30.3Z" transform="translate(-10.26 -14.05)"/><path class="cls-3" d="M571.16,26.49c-.18-1.26,1.29-2.32-.42-3.13-.26-.12-.26-1.55.1-2s1.39-.27,2.09-.17c.94.13.53,1,.49,1.5C573.3,24.18,573.1,25.73,571.16,26.49Z" transform="translate(-10.26 -14.05)"/><path class="cls-2" d="M396,234.83c-.49,0-1,0-1.48,0-.78,0-.71-.53-.66-1s-.32-1.2.63-1.22c.74,0,1.48,0,2.22,0s1.69-.29,1.64,1.19-.91,1-1.61,1A6.09,6.09,0,0,1,396,234.83Z" transform="translate(-10.26 -14.05)"/><path class="cls-1" d="M483,93.67c0,3.33,0,6.66,0,10,0,1-.3,1.39-1.36,1.38-1.53,0-3.61-.7-4.46.24-1,1.09-.29,3.16-.3,4.81,0,4.93-.06,9.87,0,14.8,0,1.23-.33,1.55-1.53,1.51-2.46-.1-4.94-.12-7.41,0-1.38.07-1.57-.46-1.56-1.68.06-6,0-12,.06-18,0-1.29-.17-1.9-1.67-1.82s-3.36.7-4.26-.28-.26-2.83-.27-4.29c0-5.49,0-11,0-16.47,0-1.29.32-1.67,1.63-1.65,6.49.07,13,.08,19.46,0,1.46,0,1.75.46,1.71,1.79C482.91,87.25,483,90.46,483,93.67Z" transform="translate(-10.26 -14.05)"/><path class="cls-1" d="M366.54,95.88c-6.67,0-13.35,0-20,0-1.28,0-1.69-.29-1.66-1.62.08-4.5.06-9,0-13.51,0-1.13.29-1.46,1.45-1.46,13.53,0,27.06,0,40.6,0a8.26,8.26,0,1,1-.35,16.51C379.89,95.92,373.21,95.88,366.54,95.88Z" transform="translate(-10.26 -14.05)"/><path class="cls-1" d="M72.25,110.19c-7.91,0-15.82,0-23.72,0-1.41,0-1.77-.4-1.73-1.76.1-3.08.07-6.17,0-9.25a3.29,3.29,0,0,1,1-2.61q8.24-8.13,16.38-16.34a2.82,2.82,0,0,1,2.26-1q6.12.06,12.23,0a2.67,2.67,0,0,1,2.1.87q8,8,16,16a2.66,2.66,0,0,1,.86,2.11c0,3.45-.08,6.91,0,10.36,0,1.37-.49,1.6-1.71,1.59C88.06,110.17,80.15,110.19,72.25,110.19Z" transform="translate(-10.26 -14.05)"/><path class="cls-1" d="M269.44,110.07c-7.9,0-15.81,0-23.71,0-1.29,0-1.66-.32-1.62-1.62.09-3.27,0-6.54,0-9.8a2.64,2.64,0,0,1,.89-2.1q8.28-8.2,16.49-16.49a2.62,2.62,0,0,1,2.1-.83q6.21.06,12.41,0a2.66,2.66,0,0,1,2.11.84q7.89,8,15.85,15.83a2.61,2.61,0,0,1,.86,2.1c0,3.51-.07,7,0,10.54,0,1.19-.28,1.54-1.51,1.53C285.37,110.05,277.4,110.07,269.44,110.07Z" transform="translate(-10.26 -14.05)"/><path class="cls-1" d="M877.8,109.82c-7.91,0-15.82,0-23.73,0-1.31,0-1.65-.36-1.61-1.64.09-3.21.06-6.42,0-9.63a2.81,2.81,0,0,1,.91-2.26q8.24-8.14,16.4-16.36a3.07,3.07,0,0,1,2.4-1c4,.06,8,0,12.05,0a2.88,2.88,0,0,1,2.27.93q7.89,8,15.86,15.84a2.85,2.85,0,0,1,.95,2.26c0,3.39-.1,6.79,0,10.18,0,1.48-.49,1.7-1.8,1.69C893.62,109.8,885.71,109.82,877.8,109.82Z" transform="translate(-10.26 -14.05)"/><path class="cls-1" d="M169.42,95.63c-6.67,0-13.34,0-20,0-1.36,0-1.91-.23-1.87-1.78.12-4.37.08-8.75,0-13.13,0-1.15.33-1.44,1.46-1.44,13.58,0,27.16,0,40.75,0a8.13,8.13,0,0,1,0,16.26C183,95.68,176.21,95.63,169.42,95.63Z" transform="translate(-10.26 -14.05)"/><path class="cls-1" d="M420.43,181.88a14.63,14.63,0,0,1,0-2.39c.11-.7-.72-1.91.8-2s3-.23,3.36,1.72a12.66,12.66,0,0,1,0,5.13,3.1,3.1,0,0,1-3.85,1.94c-.48-.2-.36-.57-.37-.91C420.42,184.22,420.43,183.05,420.43,181.88Z" transform="translate(-10.26 -14.05)"/><path class="cls-1" d="M571.74,187.8c0-2.78,0-5.55,0-8.32,0-.67-.73-1.93.8-2s3.1-.45,3.7,1.52a6.56,6.56,0,0,1,.26,1.82c0,4.62.06,9.24,0,13.86,0,2.86-.8,3.43-3.58,3.41-1,0-1.24-.34-1.23-1.28C571.77,193.84,571.74,190.82,571.74,187.8Z" transform="translate(-10.26 -14.05)"/><path class="cls-1" d="M686.34,187.73c0-2.78,0-5.55,0-8.32,0-.65-.6-1.8.7-1.88s2.92-.45,3.73,1.22a2.61,2.61,0,0,1,.22,1.08q.32,7.93,0,15.88a2.17,2.17,0,0,1-.86,1.94,4.16,4.16,0,0,1-3.41.35c-.89-.26-.38-1.4-.4-2.14C686.31,193.15,686.34,190.44,686.34,187.73Z" transform="translate(-10.26 -14.05)"/><path class="cls-1" d="M229.06,187.61c0-2.72-.05-5.43,0-8.14,0-.67-.72-1.93.81-1.95s3.1-.45,3.69,1.53a6.21,6.21,0,0,1,.26,1.82c0,4.62.07,9.24,0,13.86,0,2.85-.8,3.43-3.58,3.4-1,0-1.23-.36-1.22-1.28C229.09,193.77,229.06,190.69,229.06,187.61Z" transform="translate(-10.26 -14.05)"/><path class="cls-1" d="M656.83,193c.65-4.33,1.29-8.51,1.92-12.7h.39c.61,4,1.2,8,1.83,12.06.11.76-.37.62-.76.63C659.11,193,658,193,656.83,193Z" transform="translate(-10.26 -14.05)"/><path class="cls-1" d="M334.76,182.41a22.31,22.31,0,0,1,0-2.95c.09-.73-.73-2,1-2,2.05,0,3,.45,3.1,2a58.26,58.26,0,0,1,0,5.91c-.08,1.55-2.64,2.76-3.86,1.9-.35-.24-.27-.65-.27-1C334.75,185,334.76,183.7,334.76,182.41Z" transform="translate(-10.26 -14.05)"/><path class="cls-1" d="M520.93,34a5,5,0,0,1,0-1.28c.15-.57-.6-1.64.76-1.6,1,0,2.18.07,2.3,1.51.07.85,0,1.7.06,2.56,0,1.5-.87,1.79-2.13,1.85-1.61.08-.86-1.08-1-1.76A6.83,6.83,0,0,1,520.93,34Z" transform="translate(-10.26 -14.05)"/><path class="cls-1" d="M520.78,26.13c.71-.71-.87-2.27,1.06-2.4,1.69-.11,2,1,2,2.4s-.16,2.38-1.81,2.4C519.84,28.55,521.51,26.82,520.78,26.13Z" transform="translate(-10.26 -14.05)"/><path class="cls-1" d="M556.16,30.19c0-1.65,0-3.31,0-5,0-.53-.53-1.48.68-1.49,1,0,2.25-.08,2.3,1.23.12,3.61.12,7.24,0,10.86,0,1.3-1.31,1.23-2.29,1.22-1.22,0-.66-1-.68-1.51C556.12,33.76,556.16,32,556.16,30.19Z" transform="translate(-10.26 -14.05)"/><path class="cls-1" d="M420,25.45c.37,2.37.75,4.74,1.09,7.12.06.37.47,1-.17,1.09a5.81,5.81,0,0,1-2.2,0c-.45-.1-.14-.65-.09-1,.35-2.43.74-4.85,1.11-7.28Z" transform="translate(-10.26 -14.05)"/><path class="cls-1" d="M468.92,25.41c.38,2.43.73,4.86,1.16,7.29.16.86-.12,1.22-.89,1-.57-.18-1.85.79-1.65-.79.31-2.49.74-5,1.12-7.46Z" transform="translate(-10.26 -14.05)"/><path class="cls-1" d="M540.14,25.45c.37,2.37.75,4.74,1.09,7.12.06.36.46,1-.16,1.09a5.44,5.44,0,0,1-2.2,0c-.46-.09-.15-.63-.1-1,.35-2.43.73-4.84,1.1-7.26Z" transform="translate(-10.26 -14.05)"/><path class="cls-1" d="M504.89,25.38c.38,2.43.77,4.86,1.14,7.3.05.33.32.87-.13,1a6.5,6.5,0,0,1-2.2,0c-.53-.09-.22-.61-.17-.92.36-2.47.75-4.93,1.13-7.39Z" transform="translate(-10.26 -14.05)"/><path class="cls-1" d="M478.34,230.33a6.94,6.94,0,0,1,0-1.29c.08-.44-.41-1.19.57-1.24.78,0,1.58,0,1.71,1a16.94,16.94,0,0,1,.08,2.76c0,1.07-.69,1.52-1.72,1.44s-.5-1-.64-1.53A4.56,4.56,0,0,1,478.34,230.33Z" transform="translate(-10.26 -14.05)"/><path class="cls-1" d="M384.22,236.33c0,.61,0,1.22,0,1.83a1.19,1.19,0,0,1-2.38,0q0-1.65,0-3.3c0-.81.28-1.47,1.25-1.45s1.18.69,1.2,1.5c0,.48,0,1,0,1.46Z" transform="translate(-10.26 -14.05)"/><path class="cls-1" d="M424.58,231c-.25.89.69,2.71-1.28,2.66-1.73,0-1.07-1.72-1.19-2.77a10.15,10.15,0,0,1,0-1.46c0-.88.29-1.63,1.34-1.59s1.18.71,1.15,1.55C424.57,229.85,424.58,230.34,424.58,231Z" transform="translate(-10.26 -14.05)"/><path class="cls-1" d="M577.05,233.49c0,1.42,0,2.84,0,4.26,0,.86-.29,1.5-1.22,1.5s-1.25-.67-1.26-1.5q0-4.26,0-8.52c0-.85.42-1.46,1.35-1.4s1.13.62,1.12,1.4C577,230.65,577.05,232.07,577.05,233.49Z" transform="translate(-10.26 -14.05)"/><path class="cls-1" d="M548.11,233.71c0,1.42,0,2.84,0,4.26a1.14,1.14,0,0,1-1.24,1.28,1.11,1.11,0,0,1-1.19-1.16c0-3,0-6.05,0-9.07a1.22,1.22,0,1,1,2.43.06Z" transform="translate(-10.26 -14.05)"/><path class="cls-1" d="M464.47,229.2c.76,2.27.76,4.38,1.18,6.4.21,1-.61.66-1.06.7-.61.06-1.26.14-1.08-.88C463.85,233.46,464.12,231.48,464.47,229.2Z" transform="translate(-10.26 -14.05)"/></svg>