<svg id="Layer_1" data-name="Layer 1" xmlns="http://www.w3.org/2000/svg" viewBox="0 0 314.16 280.74"><title>apk_2</title><path d="M181.51,26.78a1.45,1.45,0,0,1,1.85,1.06A36.76,36.76,0,0,0,185.43,32c.59,1.19.9,2.6,2.13,3.38.8.51.68,1.45,1.13,2.15.87,1.36,1.23,3,2.07,4.43.51.85.61,2,1.44,2.58,1.08.81,1.21,2.18,2,3.18a24.07,24.07,0,0,1,1.61,3.06c.7,1.27,1.37,2.58,2,3.91a5.36,5.36,0,0,0,1,1.61,10,10,0,0,1,1.67,3.15,13.12,13.12,0,0,0,1,2c1,1.39,1.58,3,2.42,4.4A54.63,54.63,0,0,1,207.62,73c.58,1.43,1.5,2.87,2.17,4.29s2.19,2.46,2.63,4.11c.26,1,1.05,1.72,1.2,2.74.1.69.71,1.05,1,1.67a8.34,8.34,0,0,0,1.66,3.08A7.56,7.56,0,0,1,217.91,92c.25.69.77,1.2,1.07,1.86.65,1.43,1.55,2.81,2.21,4.25.86,1.89,2.29,3.41,3,5.42a27.25,27.25,0,0,0,2.27,4.47,5,5,0,0,1,1.1,2.35.74.74,0,0,0,.25.52c1.38,1.16,1.93,2.79,2.68,4.36s1.58,3.47,2.51,5.11a38.16,38.16,0,0,1,2.16,3.34,14.94,14.94,0,0,1,1.24,2.58,7.12,7.12,0,0,0,1.11,2c1.07,1.67,1.55,3.63,2.93,5.19a15,15,0,0,1,1.94,3.84c.47,1.08,1.22,2,1.61,3.1s1.08,1.6,1.25,2.57a1.18,1.18,0,0,0,.42.7c1.65,1.52,2.07,3.72,3.09,5.59.44.8.86,1.63,1.22,2.44.88,2,2.51,3.49,3.34,5.56a17.49,17.49,0,0,0,2.17,4.15,6.44,6.44,0,0,1,.73,1.74c.78,2,2.34,3.48,3.12,5.52a24.71,24.71,0,0,0,2.32,4.39,5.85,5.85,0,0,1,1.16,2.48,1,1,0,0,0,.4.7c1.25,1,1.55,2.51,2.28,3.8.47.84.84,1.75,1.31,2.6.69,1.26,1.4,2.55,2,3.88a4.43,4.43,0,0,0,1,1.58,8.16,8.16,0,0,1,1.89,3.4,18.64,18.64,0,0,0,1,1.94A27.89,27.89,0,0,1,274.3,197a2.26,2.26,0,0,0,.67.83,11.69,11.69,0,0,1,2,3.34,6.56,6.56,0,0,0,1.21,2.22,9.33,9.33,0,0,1,2.13,3.22c1.25,2.35,2.9,4.5,3.71,7.09a1.55,1.55,0,0,0,.51.64,7.6,7.6,0,0,1,2.1,3.57,1.27,1.27,0,0,0,.39.58,8.57,8.57,0,0,1,2.33,4,1.55,1.55,0,0,0,.4.58,8,8,0,0,1,2.09,3.64,1.51,1.51,0,0,0,.4.58,9.68,9.68,0,0,1,2.49,4.08,1.9,1.9,0,0,0,.62.71c1,.83,1.26,2.08,1.81,3.17a2.67,2.67,0,0,0,.38.73,9.94,9.94,0,0,1,2.28,4.08,1.08,1.08,0,0,0,.35.47c1.2,1,1.57,2.45,2.34,3.67s.91,2.43,2,3.3c.78.61.83,1.76,1.4,2.59.21.3.23.81.6,1.08,1.12.83,1.31,2.21,1.93,3.32a4.58,4.58,0,0,0,1,1.54c1,.79,1.2,2,1.74,3.05.12.23.13.55.36.72,1.37,1,1.84,2.5,2.36,4a1.54,1.54,0,0,0,.5.65,7.78,7.78,0,0,1,1.95,3.48,1.26,1.26,0,0,0,.26.53,9.26,9.26,0,0,1,2.65,4.35c.05.17.25.3.41.42,1.15.91,1.46,2.32,2.14,3.51s.82,2.3,1.8,3.17,1.07,1.92,1.54,2.92c.1.21.12.47.31.62,1.38,1.06,1.93,2.63,2.6,4.13a1.68,1.68,0,0,0,.43.56,8.61,8.61,0,0,1,2.09,3.66,1.48,1.48,0,0,0,.37.6,10.62,10.62,0,0,1,2.19,3.85,2,2,0,0,0,.56.74,7.06,7.06,0,0,1,2.1,3.56,1.24,1.24,0,0,0,.41.58,8.64,8.64,0,0,1,2.35,4c.1.3.34.41.53.6.38.39.23.91.17,1.36s-.52.27-.79.27H265.94a1.6,1.6,0,0,1-.23,0c.05-.89-.39-1.17-1.24-1.17a5.83,5.83,0,0,1-3.5-.7c-.91-.57-2.32-.42-3.25-1.36-.15-.14-.62,0-.92.07a1.72,1.72,0,0,1-1.71-.42,4.82,4.82,0,0,0-2.66-1.31c-2.05,0-3.47-1.39-5.15-2.14-.62-.28-1.41-.16-1.91-.83a5.82,5.82,0,0,0-2-1.4c-1-.57-2.26-.74-3-1.73-.47-.66-.94-1.45-1.63-1.71a12.36,12.36,0,0,1-3.4-2.53c-2.89-2.39-5-5.53-7.88-7.94-.59-.5-1.58-.89-1.26-2,0-.12-.25-.4-.44-.52-1.61-1-1.62-3.05-3-4.26-.31-.29-1-1.12-.91-1.59.18-1.21-1.32-1.61-1.09-2.73-1.75-1.25-1.63-3.79-3.44-5-.18-.11-.1-.37,0-.56a.57.57,0,0,0-.22-.74c-.92-.58-1.12-1.69-1.48-2.54s-.69-1.79-1.1-2.54-.38-1.76-1.09-2.12c-1.32-.68-1.19-2.14-1.89-3.14a22.46,22.46,0,0,1-1.27-2.6c-.36-.71-.54-1.7-1.13-2.1-.87-.6-.91-1.6-1.42-2.33-.84-1.2-1-2.9-2.24-3.94a.69.69,0,0,1-.27-.51c.24-1.08-.67-1.84-1.07-2.52-.84-1.42-1.3-3-2.28-4.4a5.46,5.46,0,0,1-1.17-2.07c-.13-1.07-1-1.61-1.34-2.56-.15-.48-.14-1.31-.71-1.64-1.46-.84-1.55-2.51-2.19-3.78s-1.3-2.6-1.93-3.87c-.78-1.55-1.84-3.09-2.53-4.64-.58-1.3-2-1.94-2.17-3.55-.13-1.07-1-2.11-1.45-3.24a7.36,7.36,0,0,0-.94-2.1,20.35,20.35,0,0,1-2.34-4.32,2.14,2.14,0,0,0-2.29-1.51q-49.11,0-98.21,0H83.8c-1.11,0-1.4-.48-.78-1.4.93-1.37,2.13-2.5,3-3.92,1.2-1.87,3.35-2.93,4.38-5.19.77-1.7,2.54-3,4-4.25.59-.5,1.66-.77,1.71-1.54a3.22,3.22,0,0,1,1.25-2.18c2.75-2.79,5.08-6.08,8.73-7.87a1.36,1.36,0,0,0,.35-.33c.61-.72,1.19-1.49,1.86-2.16.89-.89,1.74-2.14,2.83-2.45a6.74,6.74,0,0,0,2.77-1.89c1.07-1,2.49-1.49,3.35-2.7a.26.26,0,0,1,.21-.09c1.63-.1,2.67-1.46,3.79-2.26a37.2,37.2,0,0,1,4.84-2.67c1.68-.85,3.29-2.23,5.4-2.12a.57.57,0,0,0,.38-.27c.47-.92,1.61-1.16,2.28-1.39,1.3-.44,2.79-.35,4.18-.89.85-.32,2,.24,2.65-.87.08-.15.52-.11.8-.11h17.38c.41,0,.84,0,1.11.32a2,2,0,0,0,1.83.63H175c.39,0,.88-.17,1.13.2.42.63,1,.54,1.61.54,5.35,0,10.71.08,16.06,0,1.72,0,3.37-1,5.18-.76a.47.47,0,0,0,.39-.23c.39-.79,1.1-.66,1.77-.66a1.49,1.49,0,0,0,.93-.16c1-.69,2.09-1.14,3.07-1.88a25.09,25.09,0,0,0,2.46-1.85c.14-.15.44-.14.66-.21a3.23,3.23,0,0,0,2.27-2.09,2.81,2.81,0,0,1,1-1.69,8.85,8.85,0,0,0,2.39-3.77,9.84,9.84,0,0,1,1.11-2.4c.89-1,.14-2.57,1.39-3.32,0,0,0-.23,0-.35V130.27c0-.32.06-.74-.25-.89-.81-.38-.68-1.07-.69-1.74a1.63,1.63,0,0,0-.28-.88c-.46-.77-.79-1.62-1.21-2.42-.61-1.17-.87-2.52-1.93-3.48a49.73,49.73,0,0,1-6.27-6.13c-.35-.46-.7-1.09-1.33-1.33-1.77-.65-3.16-2-4.79-2.84-.35-.2-.7-.43-1.06-.63a15.4,15.4,0,0,0-2.92-1c-1.45-.45-2.63-1.71-4.33-1.57a.51.51,0,0,1-.37-.25,2,2,0,0,0-2.51-.8.87.87,0,0,1-.87-.22,4.06,4.06,0,0,0-3.14-.84c-.5,0-1.16.24-1.49-.17-.53-.68-1.19-.55-1.85-.55H169.1c-.94,0-1.94-.23-2.63.73-.19.27-.5.07-.77.06-1.18-.06-2.37-.32-3.42.59-.24.21-.65.6-1.05.44-1.9-.73-3,1.6-4.83,1.19-.06,0-.19.14-.24.24-.27.61-.8.58-1.32.56a3,3,0,0,0-1.54.46c-1.25.64-2.47,1.34-3.75,1.9a12.44,12.44,0,0,0-3.71,2,1.76,1.76,0,0,1-.79.51c-1.64.22-2.21,2-3.73,2.5-1.16.43-1.74,1.88-3.17,2.42-1.84.69-3,2.51-4.73,3.61-2.18,1.39-3.54,3.85-6,5.21-2,1.13-3.25,3.55-5.54,4.57-.31.14-.51.81-.93.4s0-.92.32-1.13c1.39-.95,1.44-2.62,2.22-3.88.65-1,.68-2.53,2.07-3.08a.6.6,0,0,0,.26-.37,9,9,0,0,1,2.46-4.08c.75-.67.89-1.68,1.36-2.5.62-1.1.75-2.47,1.83-3.33a2.69,2.69,0,0,0,.66-1.09c.51-1.06.69-2.34,1.61-3.14s1.17-2.2,2-3.11.75-2.31,1.68-3.07c1.09-.89,1.2-2.26,1.89-3.32s.77-2.13,1.66-2.91c.42-.38.52-1,.8-1.38.69-.94.69-2.3,1.69-3,1.25-.81,1.41-2.21,2.13-3.29s.93-2.5,2-3.47a9.81,9.81,0,0,0,1.27-2.32c.22-.36.29-.84.66-1.17,1.09-1,1.41-2.44,2.12-3.65.54-.93.68-2.31,1.62-2.75,1.28-.59,1.4-1.82,1.77-2.72.63-1.52,1.94-2.62,2.34-4.16.23-.9,1-1.49,1.11-2.33a2,2,0,0,1,.84-1.37,5.19,5.19,0,0,0,1.92-3c.45-1.4,1.82-2,2.25-3.47.25-.86.85-1.8,1.22-2.7.55-1.33,1.65-2.28,2.18-3.66.26-.67.3-1.82,1.35-2.13,0,0,.05-.16,0-.23-.37-1,.48-1.23,1-1.61s.85-.48.91-.89c.28-2.09,1.91-3.49,2.67-5.35A23.58,23.58,0,0,0,174.35,39a1.62,1.62,0,0,1,.42-.57,8.53,8.53,0,0,0,1.56-2.16A8.29,8.29,0,0,1,177.5,34a10,10,0,0,0,1.59-2.21C180,30.18,180.5,28.35,181.51,26.78Z" transform="translate(-25.21 -26.69)"/><path d="M125.61,223h49.75c.4,0,.87-.13,1.1.27.32.55-.43.57-.54.87-.63,1.9-2.37,3.19-2.79,5.19a1.72,1.72,0,0,1-.55.91,11.75,11.75,0,0,0-2.11,3.58,7,7,0,0,1-1.22,2.19,9.05,9.05,0,0,0-2.43,4.18,1.06,1.06,0,0,1-.37.45,7.14,7.14,0,0,0-2,3.54,1.68,1.68,0,0,1-.41.71,8.14,8.14,0,0,0-2.32,4.07.66.66,0,0,1-.31.35c-1.41.88-1.76,2.43-2.39,3.8a2.52,2.52,0,0,1-.57.89,8.4,8.4,0,0,0-2,3.51,1.07,1.07,0,0,1-.29.51c-1.34,1-1.77,2.64-2.47,4.07a1.61,1.61,0,0,1-.49.66c-1.29.86-1.53,2.34-2.15,3.6-.09.18-.15.39-.3.49-1.32.94-1.54,2.52-2.28,3.8-.63,1.11-.88,2.44-2,3.29-.75.56-.84,1.59-1.32,2.37a17.21,17.21,0,0,0-1.18,1.83c-.73,1.5-2,2.58-2.63,4.2-.33.88-1.56,1.4-2,2.27-2.1,3.84-5.78,6.19-8.6,9.33A13.41,13.41,0,0,1,126,297s-.1,0-.11.05c-.77,1.34-2.5,1.43-3.41,2.57-.64.82-1.67.85-2.47,1.35-1.14.72-2.48,1.69-3.59,1.81-2.26.25-3.75,2.31-6,2.1-1.17,1.45-3.24.18-4.55,1.54-.4.41-1.53.11-2.33.15-.61,0-1.25-.13-1.7.58-.28.44-.89.21-1.36.21H26.31c-.89,0-1.46-.84-.85-1.41a4.67,4.67,0,0,0,1.2-2.33c.39-1.55,1.85-2.27,2.35-3.78a5.88,5.88,0,0,1,2-3c.76-.54.9-1.71,1.38-2.57a9,9,0,0,1,.91-1.47A8.72,8.72,0,0,0,35,289.56a1.29,1.29,0,0,1,.37-.6,10.14,10.14,0,0,0,2.38-4,1.25,1.25,0,0,1,.36-.46c1.26-.95,1.7-2.39,2.26-3.75a1.5,1.5,0,0,1,.41-.58c1.2-1,1.61-2.49,2.18-3.87a1.54,1.54,0,0,1,.36-.59,8.68,8.68,0,0,0,2.28-3.8,2.05,2.05,0,0,1,.58-.74,7.83,7.83,0,0,0,2.13-3.8.77.77,0,0,1,.25-.38c1.37-.95,1.76-2.49,2.32-3.92a1.61,1.61,0,0,1,.41-.58,9.38,9.38,0,0,0,2.22-3.91.88.88,0,0,1,.25-.39c1.44-.95,1.84-2.56,2.57-4a3.61,3.61,0,0,1,.74-.92,9.8,9.8,0,0,0,1.69-3.25c.1-.21.09-.47.3-.62,1.33-1,1.62-2.54,2.33-3.87a2.19,2.19,0,0,1,.54-.78,6.78,6.78,0,0,0,2.17-3.71.7.7,0,0,1,.23-.4c1.94-1.44,2.25-3.8,3.26-5.76a1.9,1.9,0,0,1,.46-.68,8,8,0,0,0,2.1-3.55,2.19,2.19,0,0,1,.54-.77A8.6,8.6,0,0,0,73,226c.14-.41.59-.73.92-1.06s.75-.68.72-1.3.38-.73.89-.72h50.12Z" transform="translate(-25.21 -26.69)"/></svg>